<svg version="1" xmlns="http://www.w3.org/2000/svg" width="346.667" height="346.667" viewBox="0 0 260.000000 260.000000"><path d="M43.9 31.7c-1.3 1.6-1.2 1.7.4.4.9-.7 1.7-1.5 1.7-1.7 0-.8-.8-.3-2.1 1.3zM31.4 45.2l-1.9 2.3 2.3-1.9c2.1-1.8 2.7-2.6 1.9-2.6-.2 0-1.2 1-2.3 2.2zM170 54c-7.2 2.5-9.7 5.6-9.8 12.3 0 8.7-15.7 65.5-20.2 73.7-1.1 1.9-4.5-5.7-12.5-27.5-3.2-8.8-8.2-22.1-11.2-29.5-3.1-7.4-6.5-16.2-7.7-19.5-1.9-5.3-2.6-6.1-5.9-7.2-4.3-1.4-10.1-.6-14.1 2.1-1.4.9-3.4 4-4.6 7.3-2.4 6.3-2.4 9.7-.2 47.3.6 10.7 1.7 34.7 2.3 53.2 1 26.9 1 34.3-.1 36.7-1.1 2.6-1 3.5.7 6.3 3.4 5.8 10.1 7.4 17 4.2 7-3.4 6.8-2.2 5.5-44.7-.7-20.9-1.1-38.1-.9-38.4.2-.2 1.9 3.3 3.6 7.8 1.8 4.5 5.2 12.1 7.6 16.8 5.7 11.3 9.8 24.9 9 29.5-.6 2.8-.3 3.6 1.6 5 6.7 4.6 22.9-2 22.9-9.3 0-1.4.7-5.1 1.5-8.1s2.2-9.6 3.1-14.5c2.2-13 5.6-24.2 6.5-21.9.4 1.1.8 15.2.9 31.4.1 19.5.6 32 1.4 36.9 1.1 6.1 1.1 7.8 0 9.9-2.6 5 2.9 8.6 10.8 7.2 11-2 15.4-12.2 11.6-27-.7-2.8-1.2-16.2-1.3-35-.3-31.6-2-90.3-3.1-100.2-.5-4.6-.9-5.7-2.7-6.2-3.5-.9-5.9-.7-11.7 1.4zM18 65c-.6 1.1-.8 2-.6 2 .3 0 1-.9 1.6-2 .6-1.1.8-2 .6-2-.3 0-1 .9-1.6 2zM253 80.5c0 .5.5 1.7 1 2.5s1 1 1 .5c0-.6-.5-1.7-1-2.5s-1-1.1-1-.5zM5.1 98.6c0 1.1.3 1.4.6.6.3-.7.2-1.6-.1-1.9-.3-.4-.6.2-.5 1.3zM4.2 103c0 1.4.2 1.9.5 1.2.2-.6.2-1.8 0-2.5-.3-.6-.5-.1-.5 1.3zM3.2 108c0 1.4.2 1.9.5 1.2.2-.6.2-1.8 0-2.5-.3-.6-.5-.1-.5 1.3zM2.2 115c0 1.9.2 2.7.5 1.7.2-.9.2-2.5 0-3.5-.3-.9-.5-.1-.5 1.8zM1.4 131c0 5.8.1 8.1.3 5.2.2-2.8.2-7.6 0-10.5-.2-2.8-.3-.5-.3 5.3zM2.2 147c0 1.9.2 2.7.5 1.7.2-.9.2-2.5 0-3.5-.3-.9-.5-.1-.5 1.8zM3.2 154c0 1.4.2 1.9.5 1.2.2-.6.2-1.8 0-2.5-.3-.6-.5-.1-.5 1.3zM4.1 159.6c0 1.1.3 1.4.6.6.3-.7.2-1.6-.1-1.9-.3-.4-.6.2-.5 1.3zM5.1 163.6c0 1.1.3 1.4.6.6.3-.7.2-1.6-.1-1.9-.3-.4-.6.2-.5 1.3zM7.1 170c0 .8.6 2.8 1.4 4.5 1.7 3.9 1.8 2.1 0-2.5-.7-1.9-1.4-2.8-1.4-2zM257.1 170.6c0 1.1.3 1.4.6.6.3-.7.2-1.6-.1-1.9-.3-.4-.6.2-.5 1.3zM255.6 174.5c-.9 2.6-.7 3.2.5 1.2.6-1 .9-2.1.6-2.3-.2-.3-.7.2-1.1 1.1zM249.7 188.5c-.9 1.9-1.5 3.5-1.2 3.5.7 0 3.7-6.1 3.3-6.6-.3-.2-1.2 1.2-2.1 3.1zM14 189.6c0 .6.7 1.9 1.6 3 1.4 1.8 1.4 1.8.3-.6-1.4-3.1-1.9-3.6-1.9-2.4zM29.5 215c1 1.1 2 2 2.3 2 .3 0-.3-.9-1.3-2s-2-2-2.3-2c-.3 0 .3.9 1.3 2zM226.9 223.7l-2.4 2.8 2.8-2.4c1.5-1.4 2.7-2.6 2.7-2.8 0-.8-.8-.1-3.1 2.4zM215 236.5c-2.4 2.5-4.2 4.5-3.9 4.5.3 0 2.5-2 4.9-4.5 2.4-2.5 4.2-4.5 3.9-4.5-.3 0-2.5 2-4.9 4.5zM50 238.4c0 .2.8 1 1.8 1.7 1.5 1.3 1.6 1.2.3-.4s-2.1-2.1-2.1-1.3zM57.5 247c1 1.1 2 2 2.3 2 .3 0-.3-.9-1.3-2s-2-2-2.3-2c-.3 0 .3.9 1.3 2zM206.4 247.2l-1.9 2.3 2.3-1.9c1.2-1.1 2.2-2.1 2.2-2.3 0-.8-.8-.2-2.6 1.9zM200.4 254.2l-1.9 2.3 2.3-1.9c1.2-1.1 2.2-2.1 2.2-2.3 0-.8-.8-.2-2.6 1.9z"/></svg>