<?xml version="1.0" encoding="utf-8"?>
<!-- Generator: Adobe Illustrator 21.0.0, SVG Export Plug-In . SVG Version: 6.00 Build 0)  -->
<svg version="1.1" id="Layer_1" xmlns="http://www.w3.org/2000/svg" xmlns:xlink="http://www.w3.org/1999/xlink" x="0px" y="0px"
	 viewBox="0 5 32 21" enable-background="new 0 5 32 21" xml:space="preserve">
<g>
	<path fill="none" d="M17.8,19.4C17.3,19.8,16.6,20,16,20c-0.6,0-1.3-0.2-1.8-0.6l-4.4-3.3L2,22c0,1.1,0.9,2,2,2h24c1.1,0,2-0.9,2-2
		l-7.8-5.9L17.8,19.4z"/>
	<polygon fill="none" points="2,10.3 2,20.8 9,15.5 	"/>
	<polygon fill="none" points="30,20.8 30,10.3 23,15.5 	"/>
	<path fill="none" d="M28,7H4C2.9,7,2,7.9,2,9v0l7.8,5.9l0.8,0.6l4.1,3.1c0.3,0.3,0.8,0.4,1.2,0.4s0.8-0.1,1.2-0.4L30,9
		C30,7.9,29.1,7,28,7z"/>
	<path d="M28,5H4C1.8,5,0,6.8,0,9v13c0,2.2,1.8,4,4,4h24c2.2,0,4-1.8,4-4V9C32,6.8,30.2,5,28,5z M2,10.3l7,5.3
		l-7,5.3V10.3z M28,24H4c-1.1,0-2-0.9-2-2l7.8-5.9l4.4,3.3c0.5,0.4,1.2,0.6,1.8,0.6c0.6,0,1.3-0.2,1.8-0.6l4.4-3.3L30,22
		C30,23.1,29.1,24,28,24z M30,20.8l-7-5.3l7-5.3V20.8z M17.2,18.6C16.8,18.9,16.4,19,16,19s-0.9-0.1-1.2-0.4l-4.1-3.1l-0.8-0.6L2,9
		v0c0-1.1,0.9-2,2-2h24c1.1,0,2,0.9,2,2L17.2,18.6z"/>
</g>
</svg>
