<?xml version="1.0" encoding="utf-8"?>
<!-- Generator: Adobe Illustrator 21.0.0, SVG Export Plug-In . SVG Version: 6.00 Build 0)  -->
<svg version="1.1" id="Layer_2" xmlns="http://www.w3.org/2000/svg" xmlns:xlink="http://www.w3.org/1999/xlink" x="0px" y="0px"
	 viewBox="0 0 24.8 24.3" enable-background="new 0 0 24.8 24.3" xml:space="preserve">
<g>
	<path d="M17.8,17.8c-0.4-0.2-0.8-0.3-1.3-0.5c-0.4-0.1-1-0.4-1.4-0.3c-1.2,0-1.9,1.4-2.8,1.9c-3.4-1.9-5.9-4.6-7.5-8.3
		C5.3,9.7,6.9,9.2,7.1,8c0.1-0.8-0.3-1.9-0.5-2.7C6.4,4.5,6.2,3.4,5.8,2.9C5.4,2.3,4.2,1.8,3.6,1.8c-0.9,0-1.9,0.9-2.5,1.6
		C0.5,3.9,0.1,4.5,0,5.5c0,0.5,0,0.9,0,1.4c0.4,5.1,2.5,8.8,5.1,11.7c2.6,2.9,6.2,5.2,11.1,5.8c0.4,0,0.7,0,1.1,0
		c1.2-0.5,3.3-1.8,3.4-3.1c0.1-0.6-0.1-1.6-0.6-2.2C19.8,18.5,18.5,18.1,17.8,17.8z"/>
	<path d="M12.5,0v1.5c5.9,0,10.8,4.8,10.8,10.8h1.5C24.8,5.5,19.3,0,12.5,0z"/>
	<path d="M13.9,12.3h1.6c0-1.6-1.3-3-3-3v1.6C13.3,10.9,13.9,11.5,13.9,12.3z"/>
	<path d="M18.6,12.3h1.6c0-4.2-3.4-7.6-7.6-7.6v1.6C15.9,6.2,18.6,9,18.6,12.3z"/>
</g>
</svg>
