<?xml version="1.0" encoding="utf-8"?>
<!-- Generator: Adobe Illustrator 21.0.0, SVG Export Plug-In . SVG Version: 6.00 Build 0)  -->
<svg version="1.1" id="Laag_1" xmlns="http://www.w3.org/2000/svg" xmlns:xlink="http://www.w3.org/1999/xlink" x="0px" y="0px"
	 viewBox="252.8 388.1 89.7 65.9" enable-background="new 252.8 388.1 89.7 65.9" xml:space="preserve">
<path fill="#63D1BB" d="M291.9,453.9c5.7,0.1,11.4,0.1,17.1-0.1c6.1-0.1,12.2-0.3,18.2-0.7c2.4-0.1,5-0.1,7.3-1c2.6-1,4.5-3,5.5-5.5
	c1.6-4.1,1.8-8.6,2.1-13c0.3-4.8,0.3-9.6,0.3-14.3c0-5.3-0.2-10.7-0.7-16c-0.4-4.4-1.2-9.7-5.1-12.4c-2.1-1.5-4.6-1.7-7.1-1.9
	c-2.9-0.2-5.9-0.4-8.8-0.5c-5.7-0.2-11.3-0.3-17-0.4c-5.7-0.1-11.3,0-17,0.1c-6,0.1-12,0.3-18,0.6c-5.3,0.3-11,0.5-13.4,6.1
	c-1.7,4-1.9,8.4-2.2,12.7c-0.3,4.9-0.3,9.9-0.3,14.8c0,5.2,0.2,10.5,0.6,15.7c0.4,4.2,0.9,9.5,4.4,12.4c2.3,1.9,5.1,2,7.9,2.5
	C274.4,453.8,283.2,453.7,291.9,453.9z M285.7,434.5c0-10.4,0-20.9,0-31.3c1.2,0.7,2.5,1.5,3.7,2.2c8.7,5.2,17.4,10.4,26,15.6
	c-1.2,0.7-2.5,1.5-3.7,2.2c-8.7,5.2-17.4,10.4-26,15.6C285.7,437.4,285.7,435.9,285.7,434.5z"/>
</svg>
