<?xml version="1.0" encoding="utf-8"?>
<!-- Generator: Adobe Illustrator 21.0.0, SVG Export Plug-In . SVG Version: 6.00 Build 0)  -->
<svg version="1.1" id="Layer_1" xmlns="http://www.w3.org/2000/svg" xmlns:xlink="http://www.w3.org/1999/xlink" x="0px" y="0px"
	 viewBox="0 0 153.4 194.2" enable-background="new 0 0 153.4 194.2" xml:space="preserve">
<g>
	<polygon fill="none" points="122.8,114.1 122.8,116.9 122.8,119.3 122.8,119.3 122.8,126.3 76.7,153.9 31,126.4 31,119.4
		76.7,146.6 76.6,139.3 30.9,111.8 31,104.9 76.5,132 76.4,124.8 10,85.3 10,142.9 76.7,182.6 143.4,142.9 143.4,84.3 122.8,96.6
		"/>
	<polygon fill="none" points="10.2,77.6 76.2,116.8 87.5,110 76.4,103.5 76.5,96.6 93.4,106.5 93.5,106.4 98.8,102.9 76.4,89.6
		76.5,82.7 104.8,99.5 109.7,96.6 110.4,96.2 110.7,96 76.4,75.6 76.5,68.7 116.6,92.5 125.1,87.6 143.3,76.8 76.3,37.8 76.3,37.8
		"/>
	<polygon fill="none" points="10,17.1 10,69.8 76.3,30.3 76.3,30.3 76.3,30.3 76.3,30.3 76.3,30.3 143.4,69.9 143.4,17.1 76.7,10.1
			"/>
	<path d="M77.5,0.1L76.7,0L0,8v140.6l76.7,45.6l76.7-45.6V8L77.5,0.1z M143.4,142.9l-66.7,39.7L10,142.9V85.3
		l66.4,39.5l0.1,7.2L31,104.9l-0.1,7l45.7,27.5l0.1,7.3L31,119.4l-0.1,7l45.7,27.5l46.2-27.6v-7l-0.1,0v-2.4v-2.9V96.6l20.6-12.3
		V142.9z M143.3,76.8l-18.2,10.7l-8.4,5L76.5,68.7l-0.1,7L110.7,96l-0.3,0.2l-0.7,0.4l-4.9,2.9L76.5,82.7l-0.1,7l22.4,13.3l-5.3,3.5
		l-0.1,0.1l-16.9-10l-0.1,7l11.1,6.5l-11.3,6.8l-66-39.3l66.1-39.8v0L143.3,76.8z M143.4,69.9l-67-39.5v0l0,0l0,0v0L10,69.8V17.1
		l66.7-7l66.7,7V69.9z"/>
</g>
</svg>
