<?xml version="1.0" encoding="utf-8"?>
<!-- Generator: Adobe Illustrator 21.0.0, SVG Export Plug-In . SVG Version: 6.00 Build 0)  -->
<svg version="1.1" id="Layer_1" xmlns="http://www.w3.org/2000/svg" xmlns:xlink="http://www.w3.org/1999/xlink" x="0px" y="0px"
	 viewBox="-0.8 -0.8 17.6 17.5" enable-background="new -0.8 -0.8 17.6 17.5" xml:space="preserve">
<path fill="#231F20" d="M16.5,14.9c-0.9-0.9-1.8-1.8-2.6-2.6c-0.6-0.6-0.7-0.5-0.5-1.1c0.4-1.3,1.2-2.3,1.3-3.8
	c0.3-4.7-3.8-8.6-8.4-8.1C1.6-0.3-1.6,4.1-0.6,8.6c1.1,4.7,6.4,7.4,10.8,5.3c0.2-0.1,1.1-0.8,1.4-0.8c0.1,0,0.4,0.4,0.5,0.5
	c0.6,0.6,1.2,1.2,1.8,1.8c0.4,0.4,0.7,0.9,1.1,1.1C16.1,17.2,17.5,15.9,16.5,14.9z M6.9,12.4c-3,0-5.5-2.5-5.5-5.5
	c0-3,2.5-5.5,5.5-5.5c3,0,5.5,2.5,5.5,5.5C12.4,9.9,9.9,12.4,6.9,12.4z"/>
</svg>
