<?xml version="1.0" encoding="utf-8"?>
<!-- Generator: Adobe Illustrator 21.0.0, SVG Export Plug-In . SVG Version: 6.00 Build 0)  -->
<svg version="1.1" id="Layer_1" xmlns="http://www.w3.org/2000/svg" xmlns:xlink="http://www.w3.org/1999/xlink" x="0px" y="0px"
	 viewBox="52.3 53.8 23.5 20.2" enable-background="new 52.3 53.8 23.5 20.2" xml:space="preserve">
<g>
	<path fill="none" d="M72.3,60.4c-0.2-2-1.3-3.5-3.3-3.6c-1.7-0.1-3.6,0.5-4.5,2c-0.5,0.8,0,2.2-1,2.4c-0.9,0.2-2.1-0.7-2.8-1.1
		c-0.9-0.5-1.9-1-2.8-1.6c-0.4-0.3-0.9-0.6-1.2-0.9c-0.1-0.1-0.8-1.3-0.9-1.3c-0.1,0.6-0.2,1.5-0.1,2.1c0.1,0.6,0.5,0.7,0.9,1.1
		c0.8,1-0.2,1.1-1,1.6c0.5,0.7,0.8,1.5,1.3,2c0.3,0.3,0.4,0.4,0.7,0.5c0.2,0.1,0.6,0,0.8,0.3c0.4,0.5,0.1,0.8-0.3,1
		c-0.1,0.1-0.7,0.3-0.9,0.4c-0.3,0.2-0.7,0.3-1.1,0.5c0.9,0.5,1.7,0.7,2.6,0.9c1.1,0.1,1,0.5,0.8,1.4c-0.3,1.1-0.7,1.6-1.9,2
		c-0.4,0.1-2.6,0.4-2.8,0.7c1.1,0.4,1.9,1,3,1.2c1.3,0.2,2.6,0.3,3.9,0.2c2.2-0.1,4.1-0.8,5.6-2.4c1.4-1.4,2.7-2.9,3.5-4.7
		c0.3-0.8,0.3-1.4,0.8-2.1c0.3-0.4,0.5-0.9,0.6-1.4C72.4,61.4,72.2,60.9,72.3,60.4z M68.6,59.9c-0.1,0.4-2.4-0.4-1.3-1.5
		C68.6,57.1,69.3,59.8,68.6,59.9z"/>
	<path fill="none" d="M71.9,56.9C71.9,57,72,57,72,57.1c0.4-0.1,0.5-0.5,0.6-0.8C72.4,56.3,71.8,56.7,71.9,56.9z"/>
	<path fill="none" d="M72.6,56.3C72.7,56.3,72.6,56.2,72.6,56.3L72.6,56.3z"/>
	<path fill="#231F20" d="M75.7,57.9c-0.4-0.6-1.9-0.4-2.5-0.4c0.3-0.7,0.6-1.2,0.7-1.9c0.1-0.4,0.7-1.6,0.2-1.8
		c-0.7-0.3-1.2,0.9-1.6,1.3c-0.3,0.3-0.7,0.5-1.1,0.7c-0.8,0.5-1.5,0-2.5,0c-0.9,0-1.9,0.2-2.7,0.5c-1,0.4-2.6,1.5-2.9,2.6
		c-0.2,0.6,0.3,1-0.5,0.9c-0.7,0-1.6-0.8-2.2-1.1c-1.6-0.8-3.1-1.6-4.1-3.1c-0.5-0.8-1-1.2-1.5-0.1c-0.6,1.3-1,3.3,0,4.5
		c-2.3,0.3,0.4,3.8,1,4.6c0,0-1.1,0.2-1.2,0.3c-0.3,0.3-0.2,0.9,0,1.3c0.6,1.3,2.4,1.7,3.7,1.9c-0.4,1.5-3.6,1.5-4.9,1.7
		c-0.7,0.1-1.7,0.2-1.2,1.1c0.3,0.5,1,0.9,1.5,1.2c2,1.2,4.2,1.4,6.5,1.5c1.3,0.1,2.8,0.3,4,0c3.4-1,6-4,7.7-6.9
		c0.9-1.5,1.6-3,1.5-4.8c0-0.5-0.1-1-0.1-1.5c-0.2-1-0.2-0.8,0.7-1.1C74.8,59.2,76,58.8,75.7,57.9z M72.3,61.9
		c-0.2,0.9-0.8,1.5-1,2.3c-0.2,0.8-0.4,1.5-0.8,2.2c-1,1.6-2.3,3.2-3.7,4.3c-1.6,1.3-3.4,1.7-5.4,1.7c-1.2,0-2.4-0.1-3.6-0.3
		c-1-0.2-1.8-0.7-2.8-1.1c0.2-0.4,2.4-0.6,2.8-0.7c1.2-0.4,1.5-0.9,1.9-2c0.3-0.9,0.3-1.3-0.8-1.4c-1-0.1-1.7-0.4-2.6-0.9
		c0.5-0.3,3.1-1,2.2-1.9c-0.4-0.4-1-0.3-1.4-0.6c-0.6-0.6-1-1.5-1.5-2.2c0.8-0.5,1.9-0.6,1-1.6c-0.3-0.3-0.7-0.5-0.9-0.9
		c-0.2-0.6,0-1.8,0.1-2.4c0.1,0,0.8,1.1,0.9,1.3c0.4,0.4,0.9,0.7,1.4,1c0.9,0.6,1.9,1.1,2.8,1.7c0.7,0.4,2.1,1.3,2.9,0.8
		c0.6-0.4,0.3-0.8,0.4-1.4c0.1-0.7,0.4-1.1,0.9-1.5c1.2-1.1,2.9-1.6,4.5-1.4C71.9,57.1,72.5,59.9,72.3,61.9z M72.6,56.3
		c-0.1,0.3-0.2,0.7-0.6,0.8C71.9,56.7,72.3,56.4,72.6,56.3z"/>
	<path fill="#231F20" d="M67.1,59.3c0.7,0.5,2,1.2,1.7-0.4C68.6,57.6,66.8,58,67.1,59.3z"/>
</g>
</svg>
