<?xml version="1.0" encoding="utf-8"?>
<!-- Generator: Adobe Illustrator 21.0.0, SVG Export Plug-In . SVG Version: 6.00 Build 0)  -->
<svg version="1.1" id="Layer_1" xmlns="http://www.w3.org/2000/svg" xmlns:xlink="http://www.w3.org/1999/xlink" x="0px" y="0px"
	 viewBox="0 0 21.9 21.3" enable-background="new 0 0 21.9 21.3" xml:space="preserve">
<g>
	<path fill="none" d="M6.5,3c0,0.2,0.1,0.3,0.2,0.5C6.7,3.2,6.6,3.1,6.5,3z"/>
	<path fill="none" d="M6,9.7c-0.3,1-0.3,2,0.1,3.2c0,0,0,0.1,0.1,0.1c0.6,1.7,2.1,2.4,3.7,2.8c0.5,0.1,1,0.2,1.5,0.2
		c0.8,0,1.5-0.2,2.1-0.5c0.2-0.1,0.3-0.1,0.5-0.2c0,0,0,0,0,0c0.7-0.4,1.3-1.1,1.7-1.9c0.4-0.8,0.5-2,0.4-3c0,0,0-0.1,0-0.1
		c0-0.1,0-0.3-0.1-0.4c0-0.1,0-0.2-0.1-0.4c0-0.1,0-0.1,0-0.2c0-0.1-0.1-0.2-0.1-0.3c0-0.2-0.1-0.3-0.1-0.4
		c-0.2-0.6-0.2-0.7-0.2-0.8c0,0,0,0-0.1,0c-0.1,0-0.3-0.1-0.8-0.4c-0.2-0.2-0.5-0.3-0.7-0.4c-0.1,0-0.3-0.1-0.4-0.1c0,0-0.1,0-0.1,0
		c0,0,0,0.1,0.1,0.1c0.1,0,0.1,0.1,0.2,0.1c0.3,0.2,0.6,0.3,0.8,0.5c0.4,0.4,0.6,1.1,0.8,1.7c0,0.1,0,0.2,0,0.3
		c0.2,1.1,0.2,2.6-0.3,3.5c-0.8,1.6-3,2.4-5,2.1c-0.9-0.1-1.8-0.5-2.3-1.2c-3-3.6,0.2-8.1,4.1-7.6c0.5,0.1,1.1,0.2,1.6,0.5
		c0,0,0,0,0,0c0-0.5-0.4-0.8-0.9-1c-0.4-0.1-0.9-0.2-1.5-0.2c0,0,0,0,0,0c-0.8,0-1.6,0.2-2.1,0.3C8.6,6.1,8.4,6.3,8.1,6.5
		C7.1,7.4,6.4,8.4,6,9.7z"/>
	<path fill="none" d="M4.2,3.8c0.1,0,0.1,0,0.2,0.1c0.1,0,0.1,0,0.2,0C4.1,4.1,4.2,5.1,4.1,5.5c0,0,0,0,0,0c0,0,0.1,0,0.1,0
		C4.6,5.4,5,5.4,5.4,5.4c0,0,0.1,0,0.1,0c-0.2-0.6-0.2-1.3-0.2-2c0-0.3-0.4-0.6-0.4-0.7c0.5,0.1,0.5-0.6,0.3-1
		C5.2,1.6,5.1,1.5,5,1.5C4,1.1,4,2.2,4.1,3C4.2,3.3,4.2,3.6,4.2,3.8z"/>
	<path fill="none" d="M3.7,2.7C3.7,2.7,3.7,2.7,3.7,2.7c0.2-0.1,0.1-0.3-0.1-0.4c0,0-0.1,0-0.1,0C3.4,2.4,3.4,2.8,3.7,2.7z"/>
	<path fill="none" d="M3.6,3.2C3.5,3.3,3.5,3.8,3.7,3.8C3.8,3.7,3.9,3.2,3.6,3.2z"/>
	<path fill="none" d="M11.4,9.6c-0.1,1.3,1.3,1.7,2.4,1.7c0.4-0.2,0.7-0.8,0.7-1.5c0-0.4,0-0.8-0.2-1.1c0-0.1-0.1-0.1-0.1-0.2
		c0-0.1-0.1-0.1-0.1-0.2c-0.5-0.7-1.2-0.5-1.9-0.7c0,0.1,0,0.2,0,0.3c-0.1,0.5-0.6,0.8-0.7,1.4C11.4,9.4,11.4,9.5,11.4,9.6z"/>
	<path fill="none" d="M3.5,1.8c0.1,0.1,0.1,0.1,0.2,0.1c0,0,0-0.1,0-0.3c-0.1,0-0.1,0-0.1,0c-0.1,0-0.1,0-0.1,0
		C3.5,1.7,3.5,1.7,3.5,1.8C3.5,1.7,3.5,1.8,3.5,1.8z"/>
	<path fill="none" d="M9.1,11.5C9,11.5,9,11.6,9.1,11.5L9.1,11.5z"/>
	<path fill="none" d="M7.2,5.4C7.2,5.4,7.2,5.4,7.2,5.4c1.9-0.2,0.5-0.2,0.5-0.9c0.1,0,0.2,0,0.4,0c0,0,0.1,0,0.1,0
		c0-0.6,0-1.2,0-1.8c0-0.4-0.1-0.4-0.2-0.4c0,0-0.1,0-0.2,0c-0.1,0-0.1,0-0.1-0.1c0.3-0.4,0.3-1,0-0.9c-0.1,0-0.2,0.1-0.3,0.2
		c0.2,0.1,0,0.2-0.1,0.4C7.2,2,7.2,2,7.2,2.1c0,0.8-0.2,1.8-0.1,2.6C7.1,5,7.1,5.2,7.2,5.4z"/>
	<path fill="none" d="M11,7.4c0-0.1,0-0.1,0.1-0.2c-0.2,0-0.3,0.1-0.3,0.2C10.8,7.7,11,8,11.2,8C11.1,7.8,11,7.6,11,7.4z"/>
	<path fill="none" d="M14.3,11.2c-0.1,0-0.2,0.1-0.3,0.5c0.1-0.1,0.3-0.1,0.4-0.2c0,0,0,0,0,0C14.4,11.3,14.3,11.2,14.3,11.2z"/>
	<path fill="none" d="M3.6,4.1c-0.1,0.4,0,0.4-0.1,0.7C3.8,4.9,3.8,4.1,3.6,4.1z"/>
	<path fill="none" d="M19.2,1.9c-0.1,0-0.3-0.1-0.4-0.1c-0.3-0.1-0.5-0.1-0.8-0.1c0,0,0,0,0,0c-0.3,0-0.6,0-0.9,0
		c-0.6,0-1.3,0.1-1.8,0c-1.3-0.1-1.9-0.2-3.1,0.4c0,0,0,0,0,0c-0.1,0-0.2,0.1-0.3,0.2c-0.5,0.4-1.4,1.1-1.8,1c0,0,0,0,0,0
		c0.6-0.8,1.7-1,2.4-1.7c-0.1,0-0.1,0-0.2,0c-0.9,0-2,0-2.9,0C9.6,2.8,9.6,4,9.5,5.2c0,0,0,0,0,0c0,0,0.1,0,0.2,0
		c1.2,0,6.2,0.2,7.8,0c0.3,0,0.5-0.1,0.5-0.1c-1.2-0.4-2.1-0.6-1.4-2.3c0.1-0.4,0.2-0.6,0.3-0.7C17,2,17.2,2,17.8,1.9
		c0.3-0.1,0.9-0.2,1.2,0c0.6,0.3,0.9,1.6,0.5,2.4c0,0.1-0.1,0.2-0.2,0.2c-0.3,0.3-0.8,0.5-1,0.6c-0.1,0-0.1,0.1-0.1,0.1
		c0.6,0.1,1.2,0.3,1.8,0.4c0,0,0.1,0,0.1,0c0.1-1.1,0.3-2.1,0.1-2.8C20.1,2.4,19.8,2.1,19.2,1.9z M15.3,2.5
		C15.3,2.4,15.4,2.4,15.3,2.5L15.3,2.5z M12,3.3c-0.2,0.3-0.5,0.5-0.8,0.6c0,0,0,0,0,0.1c0,0.1-0.2,0,0,0c0,0,0,0,0.1,0
		c0-0.1,0.1-0.1,0.2-0.2C11.5,3.5,11.8,3.4,12,3.3C12,3.3,12,3.3,12,3.3z M12.1,3.3C12.2,3.2,12.2,3.3,12.1,3.3L12.1,3.3z M12.2,3.2
		C12.2,3.1,12.3,3.1,12.2,3.2L12.2,3.2z M12.8,2.6C12.8,2.6,12.8,2.6,12.8,2.6c0.3-0.3,0.6-0.5,1-0.6c0.1,0,0.3-0.1,0.4-0.1
		c0-0.1,0.1-0.1,0,0c0,0-0.1,0-0.1,0.1C13.8,2.3,13.3,2.4,12.8,2.6C12.9,2.7,12.7,2.6,12.8,2.6z M15.2,2.5
		C15.2,2.5,15.2,2.5,15.2,2.5c-0.4,0.2-0.7,0.5-1.1,0.7c0,0-0.1,0-0.1,0.1c-0.1,0-0.2,0.1-0.3,0.1c0,0-0.1,0-0.1,0
		C13.8,3,14.8,2.5,15.2,2.5z M14.7,4.4C14.7,4.4,14.7,4.4,14.7,4.4C14.7,4.4,14.7,4.4,14.7,4.4c-0.3,0.1-0.5,0.3-0.7,0.4
		c-0.1,0.1-0.3,0.1-0.4,0.1c0,0-0.1,0-0.1,0c0,0.1-0.2,0.1,0,0c0.3-0.5,1.5-1.2,2.2-1.3C15.6,3.8,15.2,4.1,14.7,4.4z"/>
	<path fill="none" d="M2.1,3.6C1.6,4,1.5,4.3,1.5,4.8c0,0.3,0,0.6,0,0.9c0.3-0.1,0.7-0.1,1.1-0.2C2.2,4.9,2.4,4.2,2.1,3.6z"/>
	<path fill="none" d="M20.1,8.6c0-0.4,0-0.7,0-0.9c0-0.1,0-0.2,0-0.2C20,7.2,20,7.1,19.8,7c-0.2-0.1-0.5-0.1-1-0.2
		c-0.6-0.1-2.2-0.4-2.7-0.1c0,0,0,0,0,0c0.2,0.2,0.4,0.3,0.6,0.5c2.9,3,0.4,9.2-3.4,9.9c-2.6,0.5-6.1-0.1-7.7-2.5
		c-0.3-0.4-0.5-0.9-0.6-1.5C4.6,11.1,5.5,8.5,6.5,7C6.4,7,6.4,7,6.3,7C4.8,6.9,3.2,6.8,1.7,6.8c0.5,2.5,0.7,5.3,0.7,7.9
		c0,0.1,0,0.1,0,0.2c0-0.1,0.6-0.5,0.8-0.6c0,0,0,0,0,0c0.7,0.9-1.2,3.3-0.6,4.1c0,0,0.1,0.1,0.1,0.1c0.2-0.6,0.9-1.9,1.5-2.2
		c0.1,0,0.1-0.1,0.2-0.1c-0.1,0.3-1.2,2.9-1.3,3.6c0,0.1,0,0.2,0,0.2c0.6-0.4,2.6-2.9,3.2-2.9c0,0,0.1,0,0.1,0
		c0,0.8-0.9,1.8-1.4,2.6c0,0,0,0.1,0,0.1c1.3,0.4,1.1-0.9,1.9-1.5c0.4-0.3,0.6-0.4,0.7-0.4c0.4,0-0.4,1.2-0.6,1.8c0,0,0,0.1,0,0.1
		c0.9,0,1.4-0.1,2-0.5c0.5-0.3,0.1-0.9,0.8-0.9c0,0,0,0,0.1,0c0.1,0.5,0.1,0.8-0.1,1.2c0,0,0,0.1-0.1,0.1c0.5,0,1.2,0,1.8,0
		c1.1,0,2.3-0.1,3.4-0.1c0.5,0,1.2,0.1,1.8,0.1c0.6,0,1.2,0,1.7-0.1c0.8,0.3,1.2,0,1.1-0.9c0-0.1,0-0.1,0-0.2
		c0.1-0.5,0.1-1.2,0.2-1.7c0.1-0.3,0.2-0.7,0.2-1.1C20.3,13.4,20,10.9,20.1,8.6z"/>
	<path fill="none" d="M1.7,3.5c0.2-0.2,0.4-0.6,0.6-1c0.1-0.4,0.2-0.7,0.2-0.9C2.2,1.7,2.1,1.8,1.9,1.9c0,0,0,0-0.1,0.1
		C1.7,2.1,1.6,2.2,1.4,2.4c0,0.4,0,0.8,0.1,1.2C1.6,3.6,1.6,3.6,1.7,3.5z"/>
	<path fill="none" d="M1.8,1.7C1.5,1.6,1.2,1.9,1.4,2.1C1.5,1.9,1.8,1.9,1.8,1.7z"/>
	<path fill="none" d="M2.7,1.7c0,0,0.1-0.1,0.1-0.1H2.4C2.4,1.8,2.6,1.9,2.7,1.7z"/>
	<path fill="#231F20" d="M14.2,1.9c-0.1,0-0.3,0.1-0.4,0.1c-0.3,0.1-0.7,0.3-0.9,0.6c0,0,0,0,0,0C13.3,2.4,13.8,2.3,14.2,1.9
		C14.1,1.9,14.2,1.9,14.2,1.9z"/>
	<path fill="#231F20" d="M13.5,4.9c0,0,0.1,0,0.1,0c0.1,0,0.2-0.1,0.4-0.1c0.2-0.1,0.5-0.2,0.7-0.3c0,0,0,0,0,0c0,0,0,0,0,0
		c0.4-0.2,0.8-0.5,1-0.8C15,3.7,13.8,4.4,13.5,4.9z"/>
	<path fill="#231F20" d="M21.6,5c0-1,0.1-3.4-0.8-4.2c-0.8-0.7-3.6-0.4-4.6-0.4C12.4,0.2,8.7,0.1,4.9,0C3.1-0.1,0.5-0.1,0.2,1.9
		c-0.4,2.5,0.2,5.7,0.4,8.2c0.2,2.5-1.3,9.3,1.3,10.7c1.2,0.6,3.6,0.4,4.9,0.3c2.3-0.1,4.5-0.2,6.8-0.1c2,0.1,4,0.2,6.1,0
		c1.9-0.2,2-0.5,2.2-2.3C22.3,14.2,21.5,9.6,21.6,5z M7.2,2.1c0-0.1,0-0.1,0.1-0.2c0.1-0.2,0.3-0.3,0.1-0.4c0.1-0.1,0.2-0.2,0.3-0.2
		C8,1.2,8,1.8,7.7,2.2c0,0.1,0.1,0.1,0.1,0.1c0.1,0,0.1,0,0.2,0c0.1,0,0.2,0.1,0.2,0.4c0,0.6,0,1.2,0,1.8c0,0-0.1,0-0.1,0
		c-0.2,0-0.3,0-0.4,0c0,0.7,1.4,0.7-0.5,0.9c0,0,0,0,0,0C7.1,5.2,7.1,5,7.1,4.7C7,3.9,7.2,2.9,7.2,2.1z M8.9,5.9
		c0.5-0.1,1.3-0.3,2.1-0.3c0,0,0,0,0,0c0.5,0,1.1,0,1.5,0.2c0.5,0.2,0.9,0.5,0.9,1c0,0,0,0,0,0c0,0,0,0,0.1,0c0.1,0,0.3,0.1,0.4,0.1
		c0.2,0.1,0.5,0.2,0.7,0.4c0.5,0.3,0.7,0.3,0.8,0.4c0,0,0,0,0.1,0c0,0.1,0,0.2,0.2,0.8c0,0.1,0.1,0.3,0.1,0.4c0,0.1,0.1,0.2,0.1,0.3
		c0,0.1,0,0.1,0,0.2C16,9.6,16,9.7,16,9.8c0,0.1,0,0.3,0.1,0.4c0,0,0,0.1,0,0.1c0.1,1.1,0,2.2-0.4,3c-0.4,0.8-1,1.4-1.7,1.9
		c0,0,0,0,0,0c-0.2,0.1-0.3,0.2-0.5,0.2c-0.7,0.3-1.4,0.5-2.1,0.5c-0.5,0-1-0.1-1.5-0.2c-1.7-0.4-3.1-1.1-3.7-2.8c0,0,0-0.1-0.1-0.1
		C5.8,11.7,5.8,10.6,6,9.7c0.3-1.2,1.1-2.3,2.1-3.1C8.4,6.3,8.6,6.1,8.9,5.9z M6.7,1.9c0,0.3-0.1,0.7-0.1,0.7
		c-0.1-0.4-0.1-0.7-0.1-1C6.7,1.6,6.7,1.7,6.7,1.9z M6.7,3.5C6.6,3.3,6.5,3.2,6.5,3C6.6,3.1,6.7,3.2,6.7,3.5z M6.7,4.8
		c-0.1,0.1-0.1,0-0.1-0.2C6.7,4.5,6.7,4.7,6.7,4.8z M6.5,5C6.5,5,6.5,5,6.5,5c0.2,0,0.2,0.3,0.1,0.4C6.6,5.4,6.5,5.5,6.3,5.3
		C6.4,5.2,6.5,5.1,6.5,5z M5,1.5c0.1,0,0.2,0.1,0.2,0.2c0.2,0.4,0.2,1.1-0.3,1c0,0.1,0.4,0.4,0.4,0.7c0,0.7,0,1.4,0.2,2
		c0,0-0.1,0-0.1,0c-0.4,0-0.8,0-1.2,0.1c0,0-0.1,0-0.1,0c0,0,0,0,0,0c0.1-0.4,0-1.4,0.5-1.6c-0.1,0-0.2,0-0.2,0
		c-0.1,0-0.1-0.1-0.2-0.1c0-0.2,0-0.5-0.1-0.8C4,2.2,4,1.1,5,1.5z M3.7,3.8c-0.2,0-0.2-0.5-0.1-0.6C3.9,3.2,3.8,3.7,3.7,3.8z
		 M3.5,4.8c0.1-0.3,0-0.3,0.1-0.7C3.8,4.1,3.8,4.9,3.5,4.8z M3.6,1.6c0,0,0.1,0,0.1,0c0,0.2,0,0.3,0,0.3c0,0-0.1,0-0.2-0.1
		c0,0,0-0.1,0-0.1c0,0,0-0.1,0-0.1C3.5,1.6,3.5,1.6,3.6,1.6z M3.5,2.3C3.5,2.3,3.6,2.3,3.5,2.3c0.3,0.1,0.4,0.3,0.2,0.4c0,0,0,0,0,0
		C3.4,2.8,3.4,2.4,3.5,2.3z M3.5,5.3c0.1,0,0.1,0.2,0,0.2c0,0-0.1,0-0.1,0C3.5,5.5,3.5,5.4,3.5,5.3z M1.8,1.7c0,0.2-0.3,0.2-0.4,0.4
		C1.2,1.9,1.5,1.6,1.8,1.7z M1.4,2.4C1.6,2.2,1.7,2.1,1.9,2c0,0,0,0,0.1-0.1c0.1-0.2,0.3-0.3,0.5-0.3h0.4c0,0.1,0,0.1-0.1,0.1
		C2.6,1.9,2.4,1.8,2.4,1.6c0,0.2,0,0.5-0.2,0.9c-0.1,0.4-0.4,0.9-0.6,1C1.6,3.6,1.6,3.6,1.5,3.6C1.4,3.2,1.4,2.8,1.4,2.4z M1.5,4.8
		c0-0.5,0.1-0.8,0.6-1.2c0.3,0.6,0.1,1.3,0.5,1.9C2.2,5.6,1.8,5.6,1.5,5.7C1.5,5.3,1.5,5,1.5,4.8z M19.9,15.7
		c-0.1,0.4-0.1,0.7-0.2,1.1c-0.1,0.5-0.1,1.1-0.2,1.7c0,0.1,0,0.1,0,0.2c0.1,0.9-0.3,1.2-1.1,0.9c-0.5,0.1-1.1,0.1-1.7,0.1
		c-0.6,0-1.3-0.1-1.8-0.1c-1.1,0-2.3,0.1-3.4,0.1c-0.6,0-1.3,0-1.8,0c0,0,0-0.1,0.1-0.1c0.2-0.4,0.2-0.7,0.1-1.2c0,0,0,0-0.1,0
		c-0.7,0-0.3,0.6-0.8,0.9c-0.6,0.4-1.1,0.5-2,0.5c0,0,0-0.1,0-0.1c0.2-0.6,1-1.8,0.6-1.8c-0.1,0-0.3,0.1-0.7,0.4
		c-0.8,0.6-0.6,1.9-1.9,1.5c0,0,0-0.1,0-0.1c0.4-0.8,1.4-1.8,1.4-2.6c0,0-0.1-0.1-0.1,0c-0.6,0-2.6,2.6-3.2,2.9c0,0,0-0.1,0-0.2
		c0.1-0.7,1.2-3.4,1.3-3.6c-0.1,0-0.1,0-0.2,0.1c-0.7,0.3-1.4,1.7-1.5,2.2c0,0-0.1-0.1-0.1-0.1c-0.6-0.8,1.3-3.2,0.6-4.1
		c0,0,0,0,0,0c-0.2,0.1-0.8,0.5-0.8,0.6c0-0.1,0-0.1,0-0.2c0-2.6-0.2-5.4-0.7-7.9c1.5,0,3.1,0.1,4.6,0.2c0.1,0,0.1,0,0.2,0
		c-1,1.5-1.9,4.1-1.5,6.1c0.1,0.5,0.3,1,0.6,1.5c1.6,2.4,5.1,3,7.7,2.5c3.8-0.8,6.3-6.9,3.4-9.9c-0.2-0.2-0.4-0.3-0.6-0.5
		c0,0,0,0,0,0c0.5-0.3,2.1,0,2.7,0.1c0.5,0.1,0.8,0.1,1,0.2C20,7.1,20,7.2,20.1,7.4c0,0.1,0,0.1,0,0.2c0,0.2,0,0.5,0,0.9
		C20,10.9,20.3,13.4,19.9,15.7z M20.1,5.6C20.1,5.6,20,5.6,20.1,5.6c-0.7-0.1-1.3-0.3-1.9-0.4c0,0,0.1,0,0.1-0.1
		c0.2-0.1,0.7-0.4,1-0.6c0.1-0.1,0.2-0.2,0.2-0.2c0.4-0.8,0.1-2.1-0.5-2.4c-0.3-0.2-0.9-0.1-1.2,0C17.2,2,17,2,16.9,2.1
		c-0.1,0.1-0.2,0.3-0.3,0.7c-0.7,1.7,0.2,1.9,1.4,2.3c0,0.1-0.2,0.1-0.5,0.1c-1.6,0.2-6.6-0.1-7.8,0c-0.1,0-0.2,0-0.2,0c0,0,0,0,0,0
		C9.6,4,9.6,2.8,9.4,1.6c0.9,0,2,0,2.9,0c0.1,0,0.1,0,0.2,0c-0.7,0.7-1.8,0.9-2.4,1.7c0,0,0,0,0,0c0.3,0.2,1.2-0.6,1.8-1
		c0.1-0.1,0.2-0.2,0.3-0.2c0,0,0,0,0,0c1.2-0.6,1.8-0.5,3.1-0.4c0.6,0,1.2,0,1.8,0c0.3,0,0.6,0,0.9,0c0,0,0,0,0,0
		c0.3,0,0.5,0,0.8,0.1c0.1,0,0.3,0.1,0.4,0.1c0.6,0.2,0.9,0.5,1,0.9C20.4,3.5,20.2,4.5,20.1,5.6z"/>
	<path fill="#231F20" d="M7.7,13.9c0.6,0.7,1.4,1.1,2.3,1.2c1.9,0.3,4.1-0.5,5-2.1c0.5-0.9,0.5-2.4,0.3-3.5c0-0.1,0-0.2,0-0.3
		c-0.1-0.6-0.3-1.3-0.8-1.7C14.4,7.4,14,7.2,13.7,7c-0.1-0.1-0.2-0.1-0.2-0.1c-0.1,0-0.1-0.1-0.1-0.1c-0.5-0.3-1.1-0.4-1.6-0.5
		C7.9,5.8,4.7,10.3,7.7,13.9z M8.9,11.1c-0.1-0.1-0.1-0.2-0.2-0.4C9,10.6,8.9,10.9,8.9,11.1z M9.1,11.5C9,11.3,9.1,11.4,9.1,11.5
		C9,11.6,9,11.5,9.1,11.5z M9.5,9.3C9.5,9.4,9.4,9.4,9.5,9.3L9.5,9.3z M10.8,7.4c0-0.2,0.1-0.3,0.3-0.2c0,0.1-0.1,0.1-0.1,0.2
		c0,0.2,0.1,0.5,0.2,0.6C11,8,10.8,7.7,10.8,7.4z M12.2,14c0.1-0.1,0.1,0,0.2,0C12.4,14.1,12.2,14.1,12.2,14z M14,11.7
		c0.1-0.4,0.2-0.6,0.3-0.5c0,0,0.1,0.1,0.1,0.3c0,0,0,0,0,0C14.3,11.6,14.1,11.6,14,11.7z M12.2,7.6c0.7,0.2,1.4,0,1.9,0.7
		c0,0.1,0.1,0.1,0.1,0.2c0,0.1,0.1,0.1,0.1,0.2c0.1,0.3,0.2,0.7,0.2,1.1c0,0.7-0.2,1.3-0.7,1.5c-1.1,0-2.5-0.4-2.4-1.7
		c0-0.1,0-0.2,0-0.3c0.1-0.6,0.6-0.9,0.7-1.4C12.2,7.8,12.2,7.7,12.2,7.6z"/>
	<path fill="#231F20" d="M13.5,3.4c0,0,0.1,0,0.1,0c0.1,0,0.2-0.1,0.3-0.1c0,0,0.1,0,0.1-0.1c0.4-0.2,0.8-0.5,1.1-0.7c0,0,0,0,0,0
		C14.8,2.5,13.8,3,13.5,3.4z"/>
	<path fill="#231F20" d="M11.2,3.9c0.3-0.1,0.6-0.3,0.8-0.6c0,0,0,0,0,0c-0.2,0.1-0.5,0.2-0.6,0.4C11.3,3.8,11.2,3.8,11.2,3.9z"/>
</g>
</svg>
