<svg xmlns="http://www.w3.org/2000/svg" viewBox="18.7 14.4 113.9 45.9"><path d="M129.5 18.6c-2.4-8.1-28.5-2-34.1-1.6-14.5.9-29.4-.3-43.9-.5-7.4-.1-15.3-1.1-22.6.1-7.3 1.2-8.6 3.9-9.5 11.1-.9 6.7-1.5 25.1 2.2 29.2 3.6 3.9 11.2 2.6 15.7 2.3 7.4-.4 14.8.2 22.2 0 16.1-.5 31.9-2.3 47.9-.1 5.5.8 17.2 3.5 22.5-2.2 5.3-5.8 1.6-31.3-.4-38.3zM44.8 50.4c-4.8 4.4-3.5-12-3.6-13.8-1.1 2.8-.8 9.9-5.1 9.7-1.2 0-4.3-9.4-4.8-10.6 0 2.7 2.1 12.4-.5 13.9-4.6 2.7-3.1-9-3.1-10.4-.1-2.5-2.7-14.7 2.3-14.4 3.1.2 6 12 7 13.9 1.5-4.3 3.8-19.1 7.7-11.6 1.1 2.4 2.1 21.5.1 23.3zm3.5-25.8c-.1-2.8 2.4-8.8 3.6-3.6.5 2.3-2.6 6.8-3.6 3.6zm5 24.6c-4.7 5.9-6.1-18.4-4.7-20.3 3.9-5.6 3.7 3.8 3.9 4.8.3 2.6 2.5 13.3.8 15.5zm16-.5c-4 3.6-17.4 3.4-12-4.3 2.7-3.9 2.6 5.6 6.2 5.2 3.6-.5 3.7-8.2 1.9-10.7-3.7-5.1-9.2 1.5-10-7.5-.5-5.5 4.5-10.1 10.6-7.8 3.5 1.4 3.9 4-.4 4.3-1.3.1.9-3.2-2.7-2.8-6 .6-5.4 7.3-1.8 10.5 1.8 1.6 5.2-1 7.6 1.7 1.3 1.2 2.2 9.9.6 11.4zm15.9.8c-2.1 5.6-3.4-4.3-3.4-4.7-.1-1.4.3-5.3-.8-6.2-7.4-5.8-4.6 9.9-5.1 10.5-5 6.8-4.1-16.8-4.1-18.5 0-1.1-.9-9.7 3.4-6.9 1.1.7.6 12.1.5 13.3 1.8-.1 3.7-.2 5.6-.2-.2-2.9-1.6-16.5 3.1-9.8 2.2 3.1 2.1 19.1.8 22.5zm15.2.1c-1.2-4-3-8.3-4.9-12-1.3 2.2-2.8 7.5-3.9 9.1-.7 1 .7 4.1-2.2 3.5-2.7-.5-1.5-4.4-1.5-6.6 0-2.6-2.7-19.4-.7-20.5 5.7-3.1 4.1 12.4 4.3 15.6 2.1-3.6 6.5-18.2 11.9-16.4-1.9-.6-5 11.6-4.8 13.2.5 3.3 3.7 6.3 4.2 9.7 1.5 1.6 1.7 3.2.6 4.7-1.1.9-2.1.7-3-.3zm21-11.4c0 2.1 1.2 8.3-.2 10.3-.2.3-3.5 1.8-3.7.7-.4-3 .2-7.7.2-10.9-11.1 1.3-5.3-2.1-7.8 7.2-2.1 7.8-3.4 3.2-3.7-2.7-.3-7.4-2.7-17.2 7.6-18.3 3.3-.4 4.8-.6 7.1 2.2.4 3 .5 6.1.5 9.1.9-.2 1.6 0 2.2.7-.4 1.1-1.1 1.7-2.2 1.7z"/><path d="M116.4 26c-5.9-3.9-12.7 11.4-2.6 10.3 4.2-.5 7.2-7.2 2.6-10.3z"/></svg>