<?xml version="1.0" encoding="utf-8"?>
<!-- Generator: Adobe Illustrator 21.0.0, SVG Export Plug-In . SVG Version: 6.00 Build 0)  -->
<svg version="1.1" id="Layer_1" xmlns="http://www.w3.org/2000/svg" xmlns:xlink="http://www.w3.org/1999/xlink" x="0px" y="0px"
	 viewBox="0 0 66 100.8" enable-background="new 0 0 66 100.8" xml:space="preserve">
<g>
	<path fill="#FFFFFF" d="M56.3,9.2C43.4-3.1,22.6-3.1,9.7,9.2c-12.9,12.3-12.9,32.2,0,44.5c0,0,23.3,21.8,23.3,47
		c0-25.2,23.3-47,23.3-47C69.2,41.5,69.2,21.5,56.3,9.2z M46.5,51.5c-1,0.9-2.6,1.3-3.9,1c-1.1-0.3-1.4-1.2-0.5-2
		c0.1-0.1-0.3-2.2-0.4-2.6c-0.2-1.2-0.3-2.3-0.3-3.4c0-3.6,0.3-7.1,0-10.7c-0.1-0.9-0.1-1.7-0.2-2.6c-0.7,1.9-1.4,3.8-1.8,5.8
		c-0.4,1.9-0.7,3.7-1.4,5.5c0,0.1,0.1,0.3,0.1,0.4c0.2,0.7-0.5,1.3-1,1.6c-0.4,0.2-0.8,0.4-1.2,0.6c-0.9,0.4-2.6,0.8-3.5,0
		c-0.3-0.1-0.4-0.3-0.4-0.5c-0.1-0.3,0.1-0.7,0.3-1c-0.7-2.3-1.3-4.5-2.5-6.5c-1.2-2.1-2.2-4.3-3.1-6.5c-0.1-0.2-0.2-0.4-0.2-0.6
		c0,0.6,0,1.1,0,1.7c0.2,5.8,0.6,11.5,0.6,17.3c0,1.9-3.6,2.8-4.9,1.8c-0.3-0.2-0.6-0.5-0.8-0.8c-0.5-0.7-0.4-1.4,0.1-1.9
		c-0.1-5.6-0.5-11.1-0.6-16.7c0-2.9-0.1-5.7-0.5-8.6c-0.4-2.5-0.5-4.9,0.6-7.3c0.9-2,5.7-2.2,5.4,0c2.3,4.6,4.1,9.5,6,14.3
		c0.7,1.7,1.5,3.2,2.3,4.7c0.6-1.7,1.3-3.3,1.8-4.9c1.5-4.3,2.8-8.7,3.7-13.2c0-0.1-0.1-0.2-0.1-0.4c-0.2-0.5,0-0.9,0.5-1.3
		c0.8-1.3,5.6-2.1,5.3-0.6c-0.1,0.3-0.1,0.7-0.2,1c1,2.9,0.5,6,0.5,9.1c0,3.8,0.5,7.5,0.7,11.2c0.1,3.3-0.7,7,0,10.3
		C47.4,47.5,48.2,49.9,46.5,51.5z"/>
	<path fill="#6BC6B3" d="M47.1,35.2c-0.1-3.8-0.7-7.5-0.7-11.2c0-3,0.5-6.2-0.5-9.1c0.1-0.3,0.1-0.7,0.2-1c0.3-1.5-4.6-0.7-5.3,0.6
		c-0.5,0.4-0.7,0.9-0.5,1.3c0.1,0.1,0.1,0.2,0.1,0.4c-0.9,4.5-2.2,8.8-3.7,13.2c-0.6,1.7-1.2,3.3-1.8,4.9c-0.8-1.5-1.6-3.1-2.3-4.7
		c-1.9-4.8-3.7-9.7-6-14.3c0.3-2.1-4.5-1.9-5.4,0c-1.1,2.4-1,4.8-0.6,7.3c0.4,2.9,0.5,5.7,0.5,8.6c0.1,5.6,0.5,11.1,0.6,16.7
		c-0.5,0.6-0.6,1.2-0.1,1.9c0.2,0.3,0.5,0.5,0.8,0.8c1.3,1,4.9,0.2,4.9-1.8c0-5.8-0.4-11.5-0.6-17.3c0-0.6,0-1.1,0-1.7
		c0.1,0.2,0.2,0.4,0.2,0.6c0.9,2.2,1.8,4.4,3.1,6.5c1.2,2.1,1.8,4.3,2.5,6.5c-0.3,0.3-0.4,0.6-0.3,1c-0.1,0.3,0.1,0.4,0.4,0.5
		c0.9,0.8,2.6,0.4,3.5,0c0.4-0.2,0.8-0.4,1.2-0.6c0.5-0.3,1.2-1,1-1.6c0-0.1-0.1-0.3-0.1-0.4c0.7-1.8,1-3.6,1.4-5.5
		c0.4-2,1.1-3.9,1.8-5.8c0.1,0.9,0.1,1.7,0.2,2.6c0.3,3.6,0,7.1,0,10.7c0,1.2,0.1,2.3,0.3,3.4c0.1,0.5,0.5,2.5,0.4,2.6
		c-0.9,0.8-0.6,1.8,0.5,2c1.3,0.3,2.9-0.1,3.9-1c1.7-1.5,0.9-4,0.5-5.9C46.4,42.2,47.2,38.6,47.1,35.2z"/>
</g>
</svg>
