<?xml version="1.0" encoding="utf-8"?>
<!-- Generator: Adobe Illustrator 21.0.0, SVG Export Plug-In . SVG Version: 6.00 Build 0)  -->
<svg version="1.1" id="Layer_1" xmlns="http://www.w3.org/2000/svg" xmlns:xlink="http://www.w3.org/1999/xlink" x="0px" y="0px"
	 viewBox="0 0 148 72.7" enable-background="new 0 0 148 72.7" xml:space="preserve">
<g>
	<path fill="none" d="M87.9,15.5c-0.1,0.3-0.2,0.6-0.2,0.9C87.8,16.3,88.2,15.5,87.9,15.5z"/>
	<path d="M143.2,31.4c-1.5,1-3.1,1.9-4.7,2.8c0-2.2-0.7-4.3-0.4-6.5c0.2-1.5,0.3-3.1,0.1-4.6c-0.2-1.4-0.7-3.1-1.9-4
		c-0.7-0.5-1.1-0.2-1.9-0.1c-0.4,0-0.5,0.1-0.8-0.3c-0.3-0.3,0-0.9-0.6-1c1-1.3-3.9-2.1-4.6-2.3c0.4-0.9,1.2-1.3,1.6-2.1
		c0.7-1.3-1.5-1-2.1-0.6c-0.5,0.3-0.9,0.8-1.3,1.2c-0.2,0.2-0.4,0.6-0.6,0.8c-0.4,0.4-0.2,0.3-0.7,0.3c-1.8,0.1-3.7-0.1-5.5,0
		c0.7-0.9-0.9-0.7-1.3-0.7c-1.5,0.1-3,0.4-4.4,0.6c1.2-3.4,2.7-7.3,1.6-10.9c-1.1-3.6-4.8-4.2-8.2-4c-8,0.6-12.3,7.5-13.8,14.7
		c-0.5-0.6-1.7-0.4-2.2,0C91,15.2,90.8,17,90.2,17c0.1-0.5,0.4-1.1,0.6-1.7c0.2-0.7,0.4-1.5,0.6-2.2c0.2-0.6,1.4-3.4,1.1-3.9
		c-0.3-0.5-1.8-0.1-2.2,0.1c-1,0.6-1.2,2.3-1.5,3.4c-0.1,0.3-0.3,1.2-0.7,1.2c-0.8,0.1-0.2-0.9-0.5-1.2c-0.4-0.4-1.6,0-2,0.2
		c-1.2,0.5-0.5,1.5-1,2.3c-0.4,0.6-1.4,1.5,0.2,1.3c0,0.6-0.5,0.6-1,0.4c-0.5-0.2-0.6-0.5-1.4-0.3c0.1-0.5-0.3-1-0.2-1.5
		c-0.2-0.4-0.1-0.6,0.3-0.6c0.2-0.1,0.3-0.2,0.4-0.3c0.5-0.8-0.2-0.8-0.9-0.7c0-0.7-0.1-1.5-0.1-2.2c0-0.4,0.2-1.4,0-1.8
		c-0.3-0.5-1.1-0.4-1.6-0.2c-0.9,0.3-1.1,0.7-1.2,1.6c0,1.6,0,3.2,0.2,4.8c-0.5,0-0.1-1.7-0.5-2.2c-0.5-0.5-1.3-0.4-1.9-0.1
		c0.8-0.6,0.2-1.7,0-2.5c-0.2-0.9-0.3-1.8-0.5-2.6c-0.3-1.1-1.3-1.3-2.2-0.7c-1.2,0.8-0.5,2.5-0.2,3.6c0.3,1.4,0.7,3.3,2.6,2.4
		c-0.4,0.4-0.4,0.9-0.4,1.4c-0.8-0.4-2.7,0.1-2.2,1.3c-2-0.3,0.2-6.1-3.3-4.6c-0.1-0.7-0.5-2-0.8-2.7c-0.3-0.6-0.6-0.7-1.3-0.7
		c-2.1,0.1-1.5,2-1,3.4c-0.6,0.2-2.1,0.5-2.5,1.1c-0.3,0.5,0.1,0.9,0,1.5c0.2,0.5,0.1,0.7-0.5,0.6c-0.3,0-0.5,0.1-0.8,0.1
		c-1-0.3-0.4-2.2-1.1-2.8c-0.6-0.5-1.6-0.2-2.1,0.2c-1.1-2.8-2.6-5.9-5.2-7.7C53,3,50,2.4,47.2,2.7c-2.9,0.3-6.3,1.8-7.1,4.9
		c-0.7,2.7,0.3,6.3,1.5,8.7c-0.6,0-1,0.3-1.6,0.4c-0.6,0.2-1.2,0.1-1.8,0.1c-1.1,0-2.1,0-3.2,0c-2.4-0.1-4.9-0.3-7.3-0.5
		c-1.2-0.1-2.3-0.2-3.5-0.2c-1,0-2.3-0.3-3.3,0.1c-0.4,0.2-0.6,0.4-0.8,0.7c0,0.1-0.1,0.2-0.1,0.2c0.1,0.3-0.1,0.4-0.4,0.4
		c-0.7,0.7-1.4,1.1-1.8,2.1c-1.6-1.1-3.3-2.4-5.1-3.1c-0.6-0.2-2.2-0.2-2.6,0.5c-0.4,0.8,2.1,1.7,2.7,2.1c1.4,0.9,2.8,2.4,4.6,1.5
		c-0.4,1.9,0.2,3.5,0.4,5.3c0.1,0.8-0.6,1-0.8,1.8c-0.2,0.9-0.2,2-0.2,2.9c0,0.4,0,0.8-0.2,1.2c-0.1,0.2-0.3,0.4-0.4,0.7
		c-0.2,0.9-0.1,2-0.1,2.9c0,1.9,0.2,3.8,0.4,5.8c0.2,1.9,0.4,3.7,0.7,5.6c0.3,1.8,0.9,3.7,0.7,5.5c-0.1,0.8,0,1.8-0.2,2.5
		c0.2,0.4,0.1,0.6-0.3,0.6c-0.1,0.1-0.2,0.1-0.3,0.2c-0.3,0.2-0.6,0.4-0.6,0.7c-0.2,1.1,1.9,2.7,2.7,3.3c-1.2-0.2-5.4,2.8-4.4,3.8
		c0.7,0.8,2.1-0.3,2.7-0.8c0.5-0.4,2.7-2,2.4-2.7c3.4,1.8,7.5,1.3,11.1,0.9c-0.5,0.9-0.9,1.8-1.3,2.7c-0.1,0.4-1.1,2.1-0.9,2.4
		c0.4,0.6,2.1,0.2,2.5-0.2c0.5-0.4,0.6-1.1,0.8-1.7c0.3-0.9,0.7-1.8,1.1-2.7c0.4-0.7,0.3-0.7,1-0.8c0.5-0.1,1.1,0,1.6,0
		c1.2,0,2.3,0,3.5,0c1.9,0,4-0.2,5.8,0.1c2.1,0.4,4.3,0.3,6.5,0.1c2-0.2,3.9-0.6,6-0.7c2.4-0.1,4.8-0.3,7.2-0.4
		c8.8-0.5,17.6-0.6,26.5-0.6c0.5,0,0.9,0,1.3,0.2c0.3,0.1,0.5,0.4,0.8,0.5c0.8,0.2,1.9,0.1,2.7,0.2c0.7,0.1,1.3,0.1,2,0.2
		c1,0.1,1.8,0.4,2.8,0.5c2,0.1,4,0.3,6,0.4c1.1,0.1,2.2,0.1,3.3,0.2c1,0.1,1.7,0.4,2.7,0.4c3.9,0.1,7.8,0.9,11.8,0.9
		c1.8,0,3.7-0.2,5.5-0.8c1-0.3,1.9-0.7,2.7-1.3c0.7-0.4,1.7-1.5,0.2-1.5c0.6-1.3,1.1-2.7,1.6-4c0.5-1.5,0.8-3.4,1.6-4.7
		c0.4-0.6,0.5-1,0.5-1.8c0.1-0.8,0.2-1.6,0.3-2.3c0.3-1.7,0.6-3.4,0.9-5.1c0.1-0.8,0.3-1.6,0.4-2.5c0.1-0.4,0.1-0.7,0.1-1.1
		c0.1-0.7,0.1-0.7,0.5-1c1.2-0.9,2.8-1.4,4-2.2c0.6-0.4,3-1.4,2.6-2.3C145.2,30.9,143.7,31,143.2,31.4z M43.4,51.8
		c-0.6,0.6-3.4,1.6-3.5,0c0-0.4,0.3-0.7,0.3-1.2c0-0.5-0.2-1-0.3-1.5c-0.3-1.9-0.2-3.8-0.1-5.8c0-2.1-0.1-4.2-0.2-6.3
		c-0.8,2.2-1.2,4.4-1.8,6.7c-0.2,0.6-0.3,1.2-0.4,1.7c-0.1,0.4-0.1,0.6-0.5,1c-0.6,0.6-1.7,1-2.6,1c-1.1,0-1.2-0.3-1.2-1.2
		c0-1-0.5-2.3-0.9-3.3c-0.9-2.3-2.2-4.4-3.2-6.7c0,2.4,0.2,4.8,0.3,7.2c0.1,1.2,0.1,2.3,0.1,3.5c0,0.9,0.4,2.6-0.1,3.5
		c-0.5,1.1-2.5,1.4-3.4,0.8c-1-0.7-0.6-1.3-0.5-2.2c0.2-1.2-0.1-2.6-0.1-3.8c-0.2-5-0.2-9.9-0.8-14.8c-0.2-1.6-0.3-4.3,1.3-5.2
		c0.8-0.5,2.5-0.7,3.1,0.2c0.5,0.8,0.8,2,1.2,2.9c0.6,1.3,1.1,2.6,1.6,3.9c1,2.5,2,5,3.2,7.4c1.5-4.3,3.5-8.8,3.9-13.3
		c0.1-1.3,1.4-1.8,2.6-2c0.4,0,1.2-0.2,1.5,0.2c0.1,0.2,0.1,0.2,0.1,0.4c0,0.2-0.1,0.5-0.1,0.7c0.1,0.2,0.2,0.5,0.2,0.7
		c0.5,2.2,0.1,4.6,0.2,6.9c0.1,2.3,0.4,4.7,0.5,7c0,2.2-0.4,4.3-0.2,6.5C43.7,48.2,44.8,50.5,43.4,51.8z M47,24.4c0-1.4-0.7-3.7,0-5
		c0.5-0.9,2.5-1.4,3.4-0.7c0.7,0.6,0.4,1.6,0.5,2.4c0,0.7,0.7,1.9,0.4,2.6C50.8,24.9,47.5,26.1,47,24.4z M52.3,50.5
		c-0.6,0.8-2.4,1.4-3.4,1.1c-0.7-0.2-0.4-0.1-0.3-0.8c0.2-0.8,0-1.5-0.1-2.3c-0.4-2.1-0.1-4.1-0.2-6.2c-0.1-2.2-0.8-4.3-0.8-6.5
		c0-1.2,0-2.3,0-3.5c0-0.5,0-1.1,0-1.6c0-0.5-0.3-1.4-0.2-1.9c0.2-0.9,1.6-1.1,2.4-1.3c0.3-0.1,1-0.2,1.4,0c0.5,0.4,0.4,2,0.4,2.6
		c0.1,2.3-0.2,4.5,0.2,6.8c0.4,2.5,0.5,4.8,0.6,7.4c0,1.1,0.1,2.2,0.3,3.3C52.6,48.6,52.9,49.8,52.3,50.5z M69.4,49.9
		c-2.3,2.1-6,2.8-8.9,2.8c-2.4,0-4.4-0.4-4.4-3.2c0-1,0.2-2,0.2-3c0-0.9,0.1-1.2,1-1.6c0.6-0.3,1.7-0.6,2.4-0.4
		c1,0.3,0.5,1.6,0.4,2.4c-0.1,1-0.5,2.5,0.2,3.4c0.7,0.9,2.2,0.5,3.2,0.4c1-0.1,2.3-0.2,2.7-1.3c0.4-1.1-0.3-2.5-0.5-3.6
		c-0.4-3.2,1.3-8.6-3.7-8.4c-1.9,0.1-4.3,0.7-6-0.5c-1.1-0.8-1.2-2.1-1.3-3.3c0-1.8-0.4-3.7-0.3-5.5c0.1-4.4,5.9-5.2,9.3-5.2
		c1.5,0,3.4,0.1,4.6,1.1c1.2,1,1,2.8-0.5,3.3c-0.6,0.2-1.6,0.5-2.2,0.3c-1-0.3-0.2-1.1-0.7-1.8c-0.8-1.4-3.7-1.4-5.1-1.1
		c-1.3,0.3-1.6,1.6-1.6,2.9c0.1,1.7,0.2,3.4,0.3,5.2c0.1,1.2,0.2,2.5,1.6,2.9c1.3,0.4,2.7,0.1,4,0c3.2-0.2,5.3,1.4,5.5,4.8
		c0.1,1.6-0.2,3.2,0,4.8C69.9,46.9,70.7,48.8,69.4,49.9z M86.3,50.9c-0.4,1.2-3.2,1.8-3.8,0.5c-0.2-0.4,0.1-0.8,0.1-1.2
		c0.1-0.7,0.2-1.3,0.1-2c0-1.6-0.1-3.1-0.2-4.7c-0.1-0.9-0.2-1.7-0.2-2.6c0-0.3,0-0.8-0.1-1c-0.2-0.7-0.1-0.5-0.8-0.6
		c-0.8-0.1-1.5-0.1-2.3-0.1c-0.4,0-2.8-0.1-3.1,0.2c-0.3,0.3-0.1,2-0.1,2.4c0,0.8,0,1.6,0,2.4c0.1,1.7,0.7,3.4,0.6,5.1
		c0,1-0.1,1.6-1.1,2c-0.6,0.3-1.9,0.6-2.5,0.4c-0.8-0.3-0.3-1.2-0.4-2c-0.2-1.7-0.6-3.3-0.6-5c0-3.6,0.4-7.2,0.2-10.8
		c-0.1-1.8-0.3-3.6-0.3-5.4c0-1-0.5-3.4,0.2-4.2c0.5-0.6,1.8-0.8,2.6-0.9c1.5-0.1,1.1,0.5,1.1,1.8c0,4.1,0.6,8.2,0.5,12.4
		c2-0.1,3.9-0.3,5.9-0.2c-0.1-2.1-0.3-4.1-0.5-6.2c-0.1-1.1-0.2-2.2-0.2-3.3c0-0.6-0.2-1.5,0.1-2.1c0.4-0.8,1.6-1.1,2.4-1.1
		c1.5,0.1,1.5,1.1,1.5,2.3c0.1,4.1,0.5,8.3,0.8,12.4C86.5,42.9,87.6,47.4,86.3,50.9z M87.7,16.5c0-0.2,0.1-0.9,0.3-0.9
		C88,15.9,87.9,16.2,87.7,16.5z M102.5,50.9c-0.7-2.2-1.7-4.3-2.6-6.4c-0.8-2.1-1.6-4.3-2.6-6.3c-0.6,1-1.2,2-1.9,3
		c-0.7,1-2.1,2.1-2.2,3.3c-0.1,1.2,0,2.5-0.1,3.7c0,0.9,0.1,2.2-0.6,2.8c-0.7,0.6-3.2,1.2-3.6-0.1c-0.1-0.3,0.2-1.1,0.2-1.5
		c0-0.6,0.1-1.2,0.1-1.9c0-0.6,0.1-1.3,0-1.9c0-0.2-0.2-0.6-0.2-0.7c0-0.2,0.1-0.3,0.1-0.5c-0.2-5.3-0.6-10.6-1-15.9
		c-0.1-1.3-0.2-2.6-0.2-3.8c0-0.8-0.2-1.5,0.5-2.1c0.6-0.5,2.6-1.2,3.3-0.4c0.5,0.6,0.2,2.6,0.3,3.3c0.1,1.5,0.2,3.1,0.3,4.6
		c0.2,3.1,0.5,6.1,0.7,9.2c0.6-1,1.1-2,1.7-3c0.5-1,0.7-2,1.3-2.8c1.4-1.9,2.2-4.3,3.2-6.5c0.8-1.7,1.8-3.5,3.3-4.5
		c0.8-0.6,4.5-1.3,2.9,0.3c-1.3,1.4-2,2.9-2.8,4.6c-0.4,1-0.9,1.9-1.4,2.9c-0.3,0.5-0.5,1.1-0.8,1.6c-0.2,0.4-0.9,1.4-0.9,1.8
		c0,0.8,1.1,2.3,1.5,3c0.5,1.1,1.1,2.1,1.5,3.2c0.9,2.1,1.7,4.3,2.6,6.4c0.5,1.3,2.1,3.7,0.6,4.8C104.9,52,102.9,52.2,102.5,50.9z
		 M124.7,38.8c0.1,2.7,0.2,5.4,0.3,8.1c0.1,2.3-0.7,3.7-3.1,3.9c-0.4,0-1.3,0.2-1.4-0.3c0-0.1,0.4-1,0.5-1.2c0.1-0.5,0.1-1.1,0-1.6
		c-0.1-2.9-0.3-5.9-0.3-8.8c-1.2,0.1-2.4,0.4-3.6,0.3c-1.2-0.1-2.4-0.5-3.7-0.3c-0.1,0-0.6,0-0.8,0.1c-0.5,0.3-0.2,0.1-0.3,0.6
		c-0.1,0.6,0.1,1.4,0.1,2c0,1.6,0,3.2,0,4.7c0,1,0.3,2.9,0,3.8c-0.2,0.6-1,0.8-1.6,0.9c-0.5,0.1-1.5,0.4-2,0.2
		c-0.7-0.4-0.3-2-0.3-2.7c0-3,0.1-6.1-0.1-9.1c-0.2-2.9-0.9-5.8-0.2-8.7c1.2-5.2,6.5-6.4,11.1-6.7c2-0.1,4.2,0,4.8,2.3
		c0.4,1.5,0.3,3.2,0.4,4.7c0.1,1.8,0.1,3.6,0.2,5.3c0.7-0.1,2.2-0.1,2.3,0.9C127,38.2,125.5,38.7,124.7,38.8z"/>
	<path d="M119.4,25.8c-1.1-0.8-3-0.3-4.3,0c-1.3,0.2-2.1,1.2-2.6,2.3c-1.2,2.7-0.6,6-0.4,8.8c1.9-0.4,3.8-0.2,5.7-0.1
		c0.4,0,2.4,0.3,2.8,0c0.3-0.3-0.2-2.7-0.2-3c-0.1-1.5-0.1-3.1-0.1-4.6C120.4,28.1,120.4,26.5,119.4,25.8z"/>
	<path d="M63.3,12.6c0.4,0.6,2.1,0.1,2.4-0.3c0.5-0.6-0.1-2.1-0.7-2.5c-0.6-0.4-1.6-0.2-2.1,0.1C61.7,10.6,62.7,11.8,63.3,12.6z"/>
	<path d="M20.7,10.9c0.3,0.9,1.7,0.6,2.3,0.2c0.9-0.6,0.5-1.7-0.1-2.5c-0.6-0.8-1.6-0.9-2.4-0.3C19.4,9.1,20.4,9.9,20.7,10.9z"/>
	<path d="M30.7,13.9c0.8,0,3.1-1.3,1.2-1.3C31,12.6,28.8,13.9,30.7,13.9z"/>
	<path d="M122.6,12.3c1.5,0.3,4.2-2.4,2.2-2.6c-0.9-0.1-1.5,0.4-2,1C122.3,11.2,121.5,12,122.6,12.3z"/>
	<path d="M135.9,17.7c1.7-0.2,2.8-1.4,4-2.5c0.7-0.7,2.5-2.2,0.6-2c-1.6,0.2-2.2,1.3-3.2,2.4C136.7,15.9,134,17.9,135.9,17.7z"/>
	<path d="M146.7,44.8c-1,0-2,0-3,0c-0.8,0-1.8-0.2-2.6,0.1c-1.5,0.6-0.9,1.8,0.4,1.9c0.9,0.1,1.8,0,2.7,0c0.9,0,2,0.2,2.8-0.1
		C148.5,46.1,148.1,44.8,146.7,44.8z"/>
	<path d="M57,60.8c-1.8,0.3-2,1.7-2.5,3.2c-0.4,1.3-0.8,2.1,0.9,1.8c1.5-0.3,1.5-1.2,2-2.5c0.1-0.4,1-2,0.8-2.4
		C58,60.6,57.3,60.7,57,60.8z"/>
	<path d="M61.6,63.4c-0.7,0-1.9,0.2-2.3,0.8c-0.4,0.5-0.3,0.9,0.2,1.1c0.5,0.1,1.6-0.2,2-0.5C62,64.4,62.5,63.4,61.6,63.4z"/>
	<path d="M116.7,67.1c-0.3-0.6-2.6,0-2.8,0.6c-0.2,0.5,0.7,1.5,1,1.9c0.5,0.7,1.2,2.4,1.9,2.9c0.5,0.4,2.3,0.2,2.7-0.5
		c0.3-0.6-0.6-1.4-1-1.9C117.8,69.1,117.2,68.1,116.7,67.1z"/>
	<path d="M120.7,64.7c-0.4-0.8-1.7-0.5-2.3-0.1c-1,0.7,0.1,2.4,0.7,3.2c0.6,0.7,1.5,0.6,2.2,0.2C122.6,67.2,121.3,65.7,120.7,64.7z"
		/>
	<path d="M5.7,43.1c-1.5,0.4-3.8,0.3-5.1,1.2c-1.3,1-0.1,1.8,1.1,1.6c0.8-0.1,1.7-0.4,2.5-0.6c0.8-0.2,1.9-0.2,2.6-0.7
		C8.1,43.8,6.9,42.8,5.7,43.1z"/>
	<path fill="#FFFFFF" d="M43.8,40.1c-0.1-3.6-0.5-7.1-0.4-10.7c0-0.8,0-1.7-0.1-2.5c-0.1-0.4-0.2-0.8-0.3-1.2c0-0.3,0.1-0.7,0.1-1
		c-0.2-0.7-1-0.6-1.6-0.5c-0.8,0.1-1.6,0.4-2.2,1c-0.5,0.6-0.3,1-0.4,1.7c-0.1,0.8-0.3,1.5-0.5,2.3c-0.9,3.5-2.1,6.9-3.3,10.3
		c-1.1-2.1-2-4.2-2.8-6.4c-0.9-2.3-2-4.5-2.9-6.8c-0.5-1.3-1-1.8-2.5-1.5c-1.7,0.4-2.2,2-2.2,3.6c-0.1,2.3,0.5,4.7,0.5,7
		c0.1,2.5,0.1,5,0.2,7.5c0.1,1.2,0.1,2.4,0.2,3.6c0,0.6,0,1.3,0.1,1.9c0,0.2,0.1,0.6,0,0.8c-0.1,0.4-0.3,0.4-0.3,0.8
		c0.1,1.7,2.5,1.6,3.6,1c0.8-0.5,0.8-1.3,0.7-2.2c0-1.4-0.1-2.9-0.1-4.3C29.2,41.7,29,39,29,36.2c0.9,2.2,2.1,4.3,3.1,6.5
		c0.4,0.9,1.2,2.4,1.1,3.3c0,0.5-0.4,0.6,0,1.1c0.3,0.3,0.7,0.3,1.1,0.3c0.8,0,1.8-0.3,2.4-0.8c0.7-0.6,0.6-1.6,0.9-2.6
		c0.6-2.3,1-4.6,1.9-6.9c0.3,3.2,0.2,6.4,0.2,9.6c0,1.2,0.2,2.3,0.4,3.4c0,0.3,0.2,0.7,0.1,1c-0.1,0.5-0.7,0.7-0.1,1.2
		c0.8,0.7,2.5,0.2,3.1-0.4c1-0.8,1-2,0.8-3.1c-0.2-1.4-0.5-2.6-0.4-4C43.6,43.3,43.8,41.7,43.8,40.1z"/>
	<path fill="#FFFFFF" d="M52.2,40.8c-0.1-2.2-0.8-4.3-0.8-6.5c0-1.2,0.1-2.3,0-3.5c0-0.6,0.2-2.6-0.2-3c-0.6-0.6-2.2,0-2.8,0.2
		c-1.7,0.7-0.9,2.1-0.9,3.6c0.1,2.3-0.1,4.5,0.2,6.7c0.3,2.2,0.6,4.3,0.6,6.6c0,1,0,2,0.1,3.1c0.1,0.8,0.4,1.7,0.3,2.5
		c-0.1,0.5-0.5,0.7-0.1,1c0.2,0.2,1.1,0.1,1.4,0c2.1-0.3,2.9-1.4,2.6-3.5C52.2,45.7,52.3,43.3,52.2,40.8z"/>
	<path fill="#FFFFFF" d="M68.7,37.4c-1.6-2.1-4.4-1.4-6.6-1.4c-1,0-2.3,0.1-2.9-0.9c-0.6-0.9-0.5-2.2-0.5-3.2c0-1.9-1.4-6.3,1.3-6.9
		c1.4-0.3,4.6-0.3,5.1,1.4c0.2,0.7-0.4,1.2,0.5,1.5c0.7,0.2,1.9-0.1,2.6-0.4c1.4-0.7,1-2.6-0.1-3.4c-2.4-1.7-6.8-1.1-9.4-0.3
		c-2.5,0.8-4.5,2.3-4.3,5.1c0.1,1.7,0.3,3.3,0.3,4.9c0,1.3,0.3,2.8,1.5,3.5c3.3,1.9,8.9-1.9,9.5,3.7c0.2,1.9-0.3,3.7,0.1,5.6
		c0.2,0.9,0.7,2.1,0.4,3.1c-0.5,1.2-2,1.2-3.1,1.3c-0.9,0.1-2.1,0.3-2.8-0.5c-0.9-1-0.3-2.8-0.2-4c0.1-0.8,0.3-1.5-0.5-1.8
		c-0.7-0.2-2,0.1-2.6,0.5c-1,0.5-0.7,1.1-0.7,2.1c0,1.1-0.3,2.2-0.1,3.2c0.5,3.2,5.1,2.4,7.3,2c1.7-0.3,3.4-0.8,4.9-1.7
		c1.5-0.9,2-1.9,1.7-3.7c-0.3-1.6-0.4-3-0.3-4.7C69.8,40.7,69.7,38.9,68.7,37.4z"/>
	<path fill="#FFFFFF" d="M86.2,37.2c-0.1-3-0.5-6-0.6-9c-0.1-1.7,0.3-3.9-2.1-3.6c-2.2,0.3-2,1.9-1.9,3.7c0.1,3,0.5,5.9,0.6,8.9
		c-2,0-3.9,0.2-5.9,0.2c0.2-4.1-0.4-8.2-0.5-12.4c0-1.4,0.4-1.9-1.1-1.8c-0.8,0-2.1,0.2-2.6,0.9c-0.4,0.5-0.2,1.4-0.2,2
		c0,0.9,0,1.8,0.1,2.7c0.1,2.2,0.3,4.3,0.4,6.5c0.1,4.2-0.6,8.3,0.1,12.5c0.1,0.7,0.3,1.4,0.3,2.1c0,0.3-0.3,1.2,0,1.4
		c0.5,0.5,1.9,0.1,2.5-0.1c3-0.9,1-5.5,0.9-7.8c0-0.9,0-1.8,0-2.7c0-0.2-0.1-1.4,0.1-1.6c0.2-0.2,1.3-0.1,1.5-0.1
		c0.9,0,1.7-0.1,2.6-0.1c0.4,0,1.1-0.1,1.5,0.1c0.5-0.1,0.7,0.1,0.5,0.6c0,0.2,0,0.3,0,0.5c0.1,1.9,0.3,3.8,0.4,5.6
		c0,0.9,0.1,1.7,0.1,2.6c0,0.7-0.3,1.5-0.3,2.2c0,1.1,0.9,1.4,1.9,1.3c1.2-0.2,1.9-0.8,2.1-2C87.6,46,86.3,41.4,86.2,37.2z"/>
	<path fill="#FFFFFF" d="M103.2,41.8c-0.7-2-1.7-3.9-2.6-5.8c-0.2-0.5-0.7-1.1-0.8-1.6c-0.2-0.6-0.1-0.7,0.2-1.4
		c0.5-0.9,0.9-1.8,1.4-2.7c0.8-1.6,1.5-3.3,2.3-4.9c0.4-0.7,0.8-1.4,1.3-2c0.4-0.5,1.5-1,0.5-1.5c-1.5-0.6-3.4,0.9-4.2,1.9
		c-1.2,1.3-1.9,3-2.6,4.6c-0.9,1.9-1.7,3.7-2.8,5.4c-0.5,0.7-0.6,1.6-1,2.4c-0.6,1.1-1.2,2.2-1.8,3.2c-0.3-5.3-0.9-10.6-1.1-15.9
		c0-0.8,0.1-1.2-0.7-1.4c-0.6-0.1-1.3,0-1.8,0.2c-1.9,0.7-1.4,2.4-1.3,4.2c0.3,5.5,1,10.9,1.1,16.4c0,0.6,0,1.1,0,1.7
		c0,0.1-0.2,0.2-0.2,0.3c0,0.2,0.2,0.2,0.2,0.3c0,1.3,0,2.7-0.1,4c0,0.8-0.5,1.9,0.3,2.3c0.5,0.3,1.4,0.1,2,0
		c0.9-0.2,1.4-0.6,1.6-1.5c0.3-1.4,0.2-3,0.2-4.5c0-0.8-0.1-1.3,0.3-2c0.4-0.5,0.9-1,1.3-1.6c0.9-1.2,1.7-2.5,2.5-3.8
		c1.3,2.6,2.2,5.3,3.3,8c0.6,1.3,1.2,2.7,1.6,4c0.3,0.8,0.4,1.5,1.4,1.6c1.2,0.2,2.9-0.5,2.8-1.9c-0.1-1.2-1-2.8-1.5-3.9
		C104.4,44.6,103.7,43.2,103.2,41.8z"/>
	<path fill="#FFFFFF" d="M124.7,36.3c-0.1-3-0.1-6.1-0.4-9.1c-0.2-2-1.3-3.1-3.3-3.3c-4.2-0.3-10.4,0.9-12.3,5.1
		c-1.1,2.4-0.8,5.2-0.6,7.7c0.3,3.1,0.4,6.1,0.4,9.2c0,1.5-0.1,3,0,4.5c0.1,0.9,0.3,0.8,1.2,0.8c0.7,0,1.4-0.2,2-0.5
		c1-0.5,0.7-1.3,0.7-2.3c0-1.6,0-3.2,0-4.7c0-0.9,0-1.7,0-2.6c0-0.5-0.2-1.7,0.1-2c0.7-0.7,3-0.1,3.8,0.1c1.5,0.2,2.8,0,4.4-0.1
		c0,2,0.1,4,0.2,5.9c0.1,1.4,0.3,2.8,0.2,4.2c-0.1,1-1.1,1.7,0.2,1.8c1,0.1,2.4-0.2,3.1-1c0.9-0.9,0.7-2.4,0.7-3.5
		c-0.1-1.5-0.2-3.1-0.2-4.6c0-0.5-0.4-2.5-0.1-2.9c0.3-0.4,1.5-0.3,1.9-0.8C127.9,36.6,125.6,36.2,124.7,36.3z M119,36.9
		c-2.2-0.1-4.5-0.4-6.8,0c-0.2-2.6-0.7-5.3,0-7.8c0.3-1,0.8-2.1,1.7-2.8c0.9-0.7,2.2-0.6,3.3-0.8c2.9-0.4,3.2,1.8,3.2,4.1
		c0,1.3,0,2.6,0.1,3.8c0.1,0.9,0.3,1.9,0.2,2.8c-0.1,0.6,0.1,0.4-0.4,0.6C120,37,119.3,36.9,119,36.9z"/>
	<path fill="#FFFFFF" d="M48.8,25.2c0.8-0.1,1.7-0.5,2.2-1.1c0.7-0.8,0-1.5-0.1-2.5c-0.2-1.5,0.3-3.4-2-3.2c-1.9,0.2-2.1,1.4-2.1,3
		C46.9,23,46.5,25.4,48.8,25.2z"/>
</g>
</svg>
