<?xml version="1.0" encoding="utf-8"?>
<!-- Generator: Adobe Illustrator 21.0.0, SVG Export Plug-In . SVG Version: 6.00 Build 0)  -->
<svg version="1.1" id="Layer_1" xmlns="http://www.w3.org/2000/svg" xmlns:xlink="http://www.w3.org/1999/xlink" x="0px" y="0px"
	 viewBox="19.1 15 112.4 46.1" enable-background="new 19.1 15 112.4 46.1" xml:space="preserve">
<g>
	<path d="M129.5,18.6c-2-6.6-26.7-2.1-32.2-1.7c-12.7,1-25.2-1-37.6-0.4c-6.2,0.3-34.9-1.8-37.5,2c-5,7.2-2.7,25.8-1.3,35.1
		c-4,0.8,2.3,4.2,3.1,4.9c6.3,2.2,16.4-0.2,23,0.4c15.4,1.5,31.8-2.2,47.3-1c4.5,1.1,9.6,1,14.2,1.2c3.4,5.6,19.7-2.5,20.8-2.2
		c0.1,0,0.4,0.1,0,0C133.8,57.8,130.2,21,129.5,18.6z M44.8,50.4c-0.7,0.6-1.8,0.9-2.6,0.7c-0.8-0.2-0.9-0.8-0.4-1.4
		c0.1-0.1-0.2-1.5-0.3-1.8c-0.2-0.8-0.2-1.5-0.2-2.3c0-2.4,0.2-4.8,0-7.2c0-0.6-0.1-1.2-0.1-1.8c-0.5,1.3-1,2.6-1.2,3.9
		c-0.2,1.3-0.5,2.5-0.9,3.7c0,0.1,0.1,0.2,0.1,0.3c0.1,0.5-0.4,0.9-0.7,1.1c-0.3,0.2-0.5,0.3-0.8,0.4c-0.6,0.3-1.8,0.5-2.4,0
		c-0.2-0.1-0.3-0.2-0.2-0.3c-0.1-0.2,0-0.5,0.2-0.7c-0.5-1.5-0.9-3-1.7-4.4c-0.8-1.4-1.5-2.9-2.1-4.4c-0.1-0.1-0.1-0.3-0.2-0.4
		c0,0.4,0,0.8,0,1.1c0.1,3.9,0.4,7.8,0.4,11.7c0,1.3-2.5,1.9-3.3,1.2c-0.2-0.2-0.4-0.3-0.5-0.5c-0.4-0.5-0.2-0.9,0.1-1.3
		c-0.1-3.8-0.4-7.5-0.4-11.3c0-2-0.1-3.9-0.4-5.8c-0.3-1.7-0.4-3.3,0.4-4.9c0.6-1.3,3.9-1.5,3.7,0c1.6,3.1,2.8,6.4,4.1,9.7
		c0.4,1.1,1,2.2,1.6,3.2c0.4-1.1,0.8-2.2,1.2-3.4c1-2.9,1.9-5.9,2.5-8.9c0-0.1-0.1-0.2-0.1-0.2c-0.1-0.3,0-0.6,0.4-0.9
		c0.5-0.9,3.8-1.4,3.6-0.4c0,0.2-0.1,0.5-0.1,0.7c0.7,2,0.4,4.1,0.3,6.2c0,2.5,0.4,5.1,0.5,7.6c0.1,2.3-0.5,4.8,0,7
		C45.4,47.7,46,49.4,44.8,50.4z M48.3,24.6c0-0.1,0-0.2,0-0.3c0,0,0-0.1,0-0.1c-0.1-0.2-0.2-0.4-0.1-0.6c0-0.1,0.1-0.2,0.1-0.3
		c-0.2-0.9-0.1-1.9-0.1-2.8c0-0.9,1.4-1.4,2.1-1.4c0.8-0.1,1.7,0.2,1.7,1.1c0,1.1-0.1,2.2,0.4,3.2c0.2,0.5-0.2,1-0.7,1.3
		c-0.1,0.1-0.2,0.1-0.2,0.2c-0.4,0.3-0.9,0.4-1.4,0.5c-0.4,0-0.9,0-1.2-0.2C48.5,25,48.3,24.9,48.3,24.6z M53.3,49.2
		c-0.5,0.6-1.5,0.9-2.2,1c-0.1,0-1.9,0.2-1.5-0.3c0.6-0.8,0-2.5-0.1-3.4c-0.2-2,0.1-3.9-0.1-5.9c-0.2-1.9-0.7-3.7-0.7-5.6
		c0-2,0.1-4-0.2-6c-0.1-0.9,3.6-1.7,3.7-1c0.3,2.2,0.1,4.3,0.1,6.5c0,1.9,0.7,3.7,0.7,5.6c0.1,2-0.1,4,0.2,6
		C53.4,46.9,53.9,48.4,53.3,49.2z M69.3,48.7c-0.9,0.8-1.9,1.3-3.1,1.7c-2.2,0.7-4.8,1.2-7.1,0.9c-3.6-0.4-2-3.8-2.3-6.3
		c-0.1-1.1,3.6-1.9,3.7-1c0.2,1.5-0.8,3.8,0.1,5.1c0.5,0.7,1.8,0.5,2.6,0.4c0.8-0.1,2.1-0.1,2.6-0.7c0.9-1-0.2-3.1-0.2-4.3
		c0-2.3,1-7.2-2.6-7.5c-2.1-0.2-6.4,1.2-7.4-1.7c-0.5-1.3-0.2-2.6-0.3-3.9c-0.1-1.1-0.4-2.2-0.3-3.4c0.1-2.4,2.4-3.6,4.5-4.2
		c2.3-0.6,10.3-1.4,9.2,2.9c-0.3,1-3.9,1.6-3.7,0.6c0.6-2.1-2.3-2.4-3.8-2.4c-0.4,0-0.7,0-1,0.1c0,0-0.6,0.2-0.8,0.3
		c-0.7,0.7-0.8,1.8-0.7,2.8c0.2,1.3,0.3,2.6,0.3,3.9c0,1.1,0,2.9,1.3,3.2c2.5,0.7,6.2-1.2,8.1,1.5c1.8,2.4,0.5,5.6,1.1,8.4
		C70,46.4,70.3,47.8,69.3,48.7z M85.2,49.5c-0.5,1.4-4.3,1.6-3.5-0.3c0.3-0.9,0.2-2.3,0.2-3.3c0-1.1-0.1-2.2-0.2-3.3
		c-0.1-1.3-0.2-2.6-0.3-3.9c-1.9-0.3-3.8-0.1-5.8,0c-0.1,1.7-0.2,3.3-0.1,5c0.2,1.7,0.9,3.9,0.4,5.5c-0.3,0.9-3.9,1.4-3.7,0.7
		c0.3-0.9,0-2.2-0.2-3.1c-0.1-1-0.3-2.1-0.3-3.1c0-2,0.2-4,0.2-6.1c0.1-4.2-0.6-8.5-0.4-12.7c0-1.1,3.7-1.5,3.7-1
		c-0.2,4.4,0.6,8.8,0.4,13.1c1.9-0.1,3.7-0.3,5.6-0.2c0-0.1,0-0.1,0-0.2c-0.2-3.4-0.6-6.8-0.6-10.2c0-1.6,3.7-2.2,3.8-0.3
		c0,3.6,0.6,7.1,0.7,10.7c0.1,2.3,0.4,4.6,0.5,6.9C85.7,45.5,85.9,47.7,85.2,49.5z M100.4,49.6c-0.8-2.6-2.2-5-3-7.6
		c-0.5-1.5-1.2-2.9-1.9-4.3c-1.1,1.9-2.3,3.7-3.8,5.3c0,2,0,4-0.2,6c-0.1,1-1.9,1.3-2.6,1.3c0,0-0.1,0-0.1,0c-0.6,0-1.5-0.4-1-1.1
		c0.1-1.7,0.2-3.3,0.2-5c-0.2-0.1-0.3-0.3-0.1-0.6c0,0,0,0,0,0c-0.1-6.5-1-13-1.2-19.5c-0.1-1.5,3.7-2.2,3.7-1
		c0.2,5.3,0.8,10.5,1.1,15.8c0.9-1.4,1.6-2.9,2.4-4.4c-0.1-0.5,0.1-0.9,0.6-1.2c0.1-0.1,0.1-0.3,0.2-0.4c1-1.9,1.9-3.8,2.8-5.8
		c0.7-1.6,1.6-3,3-4.1c0.7-0.5,1.8-0.8,2.6-0.7c0.8,0.1,0.8,0.5,0.2,0.9c-1.5,1.2-2.1,3.1-2.9,4.8c-0.9,1.9-1.8,3.7-2.8,5.6
		c1.2,2.5,2.5,4.8,3.4,7.4c0.9,2.6,2.2,5,3,7.6C104.6,50.3,100.9,51.3,100.4,49.6z M121.4,38.2c0,1.8,0.1,3.6,0.1,5.4
		c0.1,1.3,0.5,3.8-0.4,4.9c-0.5,0.6-1.4,0.8-2.2,1c-0.1,0-1.9,0.2-1.5-0.3c0.8-0.9,0.4-3.2,0.3-4.3c-0.1-2.2-0.2-4.4-0.2-6.6
		c-1,0.1-2,0.4-3.1,0.3c-1.3-0.1-3.5-0.7-4.8-0.1c0,0.8,0.1,1.5,0.1,2.3c0,2.6,0,5.3,0,7.9c0,1-3.7,1.5-3.7,1c0-3.3,0.1-6.7-0.1-10
		c-0.1-2.9-0.9-5.9-0.4-8.8c0.5-2.6,1.9-4.4,4.3-5.4c2.1-0.8,4.8-1.2,7.1-1.3c2.3-0.1,3.6,0.7,3.8,3.1c0.2,2.5,0.3,5.1,0.4,7.6
		c0,0.3,0,0.6,0,1c0.9-0.1,2-0.1,2.2,0.7C123.6,37.4,122.4,38.1,121.4,38.2z"/>
	<path d="M116.4,26c-0.8-0.6-1.8-0.3-2.7-0.2c-0.6,0.1-1.7,0.1-2.2,0.4c-2.1,1.3-2.3,4.4-2.2,6.6c0.1,1.2,0.2,2.4,0.3,3.6
		c2.1-0.4,4.2-0.1,6.4,0c0.5,0,1.1,0,1.6-0.1c-0.1-1.9-0.3-3.8-0.3-5.7C117.2,29.5,117.5,26.8,116.4,26z"/>
</g>
</svg>
