<?xml version="1.0" encoding="utf-8"?>
<!-- Generator: Adobe Illustrator 21.0.0, SVG Export Plug-In . SVG Version: 6.00 Build 0)  -->
<svg version="1.1" id="Layer_1" xmlns="http://www.w3.org/2000/svg" xmlns:xlink="http://www.w3.org/1999/xlink" x="0px" y="0px"
	 viewBox="18.7 14.4 113.9 45.9" enable-background="new 18.7 14.4 113.9 45.9" xml:space="preserve">
<g>
	<path d="M129.5,18.6c-2.4-8.1-28.5-2-34.1-1.6c-14.5,0.9-29.4-0.3-43.9-0.5c-7.4-0.1-15.3-1.1-22.6,0.1c-7.3,1.2-8.6,3.9-9.5,11.1
		c-0.9,6.7-1.5,25.1,2.2,29.2c3.6,3.9,11.2,2.6,15.7,2.3c7.4-0.4,14.8,0.2,22.2,0c16.1-0.5,31.9-2.3,47.9-0.1
		c5.5,0.8,17.2,3.5,22.5-2.2C135.2,51.1,131.5,25.6,129.5,18.6z M44.8,50.4c-4.8,4.4-3.5-12-3.6-13.8c-1.1,2.8-0.8,9.9-5.1,9.7
		c-1.2,0-4.3-9.4-4.8-10.6c0,2.7,2.1,12.4-0.5,13.9c-4.6,2.7-3.1-9-3.1-10.4c-0.1-2.5-2.7-14.7,2.3-14.4c3.1,0.2,6,12,7,13.9
		c1.5-4.3,3.8-19.1,7.7-11.6C45.8,29.5,46.8,48.6,44.8,50.4z M48.3,24.6c-0.1-2.8,2.4-8.8,3.6-3.6C52.4,23.3,49.3,27.8,48.3,24.6z
		 M53.3,49.2c-4.7,5.9-6.1-18.4-4.7-20.3c3.9-5.6,3.7,3.8,3.9,4.8C52.8,36.3,55,47,53.3,49.2z M69.3,48.7c-4,3.6-17.4,3.4-12-4.3
		c2.7-3.9,2.6,5.6,6.2,5.2c3.6-0.5,3.7-8.2,1.9-10.7c-3.7-5.1-9.2,1.5-10-7.5c-0.5-5.5,4.5-10.1,10.6-7.8c3.5,1.4,3.9,4-0.4,4.3
		c-1.3,0.1,0.9-3.2-2.7-2.8c-6,0.6-5.4,7.3-1.8,10.5c1.8,1.6,5.2-1,7.6,1.7C70,38.5,70.9,47.2,69.3,48.7z M85.2,49.5
		c-2.1,5.6-3.4-4.3-3.4-4.7c-0.1-1.4,0.3-5.3-0.8-6.2c-7.4-5.8-4.6,9.9-5.1,10.5c-5,6.8-4.1-16.8-4.1-18.5c0-1.1-0.9-9.7,3.4-6.9
		c1.1,0.7,0.6,12.1,0.5,13.3c1.8-0.1,3.7-0.2,5.6-0.2c-0.2-2.9-1.6-16.5,3.1-9.8C86.6,30.1,86.5,46.1,85.2,49.5z M100.4,49.6
		c-1.2-4-3-8.3-4.9-12c-1.3,2.2-2.8,7.5-3.9,9.1c-0.7,1,0.7,4.1-2.2,3.5c-2.7-0.5-1.5-4.4-1.5-6.6c0-2.6-2.7-19.4-0.7-20.5
		c5.7-3.1,4.1,12.4,4.3,15.6c2.1-3.6,6.5-18.2,11.9-16.4c-1.9-0.6-5,11.6-4.8,13.2c0.5,3.3,3.7,6.3,4.2,9.7c1.5,1.6,1.7,3.2,0.6,4.7
		C102.3,50.8,101.3,50.6,100.4,49.6z M121.4,38.2c0,2.1,1.2,8.3-0.2,10.3c-0.2,0.3-3.5,1.8-3.7,0.7c-0.4-3,0.2-7.7,0.2-10.9
		c-11.1,1.3-5.3-2.1-7.8,7.2c-2.1,7.8-3.4,3.2-3.7-2.7c-0.3-7.4-2.7-17.2,7.6-18.3c3.3-0.4,4.8-0.6,7.1,2.2c0.4,3,0.5,6.1,0.5,9.1
		c0.9-0.2,1.6,0,2.2,0.7C123.2,37.6,122.5,38.2,121.4,38.2z"/>
	<path d="M116.4,26c-5.9-3.9-12.7,11.4-2.6,10.3C118,35.8,121,29.1,116.4,26z"/>
</g>
</svg>
