<?xml version="1.0" encoding="utf-8"?>
<svg version="1.1" id="Layer_2" xmlns="http://www.w3.org/2000/svg" xmlns:xlink="http://www.w3.org/1999/xlink" x="0px" y="0px"
	 viewBox="0 0 57 23" enable-background="new 0 0 58 23" xml:space="preserve">
<path fill="#F2F1F1" d="M57.5,14c-5.4,0-7.8-2.4-11.2-5.7C42.5,4.6,37.8,0,28.8,0c-9,0-13.7,4.6-17.5,8.3C7.8,11.6,5.4,14,0,14v9
	c9,0,13.7-4.6,17.5-8.3C20.9,11.4,23.4,9,28.8,9c5.4,0,7.8,2.4,11.2,5.7c3.8,3.7,8.5,8.3,17.5,8.3c0.2,0,0.3,0,0.5,0v-9
	C57.8,14,57.7,14,57.5,14z"/>
</svg>
