<?xml version="1.0" encoding="utf-8"?>
<svg version="1.1" id="Layer_1" xmlns="http://www.w3.org/2000/svg" xmlns:xlink="http://www.w3.org/1999/xlink" x="0px" y="0px"
	 viewBox="0 5 32 22" enable-background="new 0 5 32 22" xml:space="preserve">
<g>
	<rect x="4" y="15" fill="none" width="8" height="8"/>
	<path fill="none" d="M19,15h-4c-0.6,0-1,0.4-1,1c0,0.6,0.4,1,1,1h4c0.6,0,1-0.4,1-1C20,15.4,19.6,15,19,15z"/>
	<path fill="#63D1BB" d="M20,11c0-1.1-0.9-2-2-2V6c0-0.6-0.4-1-1-1H5C4.4,5,4,5.4,4,6c0,0.6,0.4,1,1,1h11v2c-1.1,0-2,0.9-2,2H4
		c-2.2,0-4,1.8-4,4v8c0,2.2,1.8,4,4,4h16c2.2,0,4-1.8,4-4v-8C24,12.8,22.2,11,20,11z M12,23H4v-8h8V23z M19,17h-4c-0.6,0-1-0.4-1-1
		c0-0.6,0.4-1,1-1h4c0.6,0,1,0.4,1,1C20,16.6,19.6,17,19,17z"/>
	<polygon fill="#63D1BB" points="26,15 26,23 32,27 32,11 	"/>
</g>
</svg>
