<?xml version="1.0" encoding="utf-8"?>
<!-- Generator: Adobe Illustrator 21.0.0, SVG Export Plug-In . SVG Version: 6.00 Build 0)  -->
<svg version="1.1" id="Money" xmlns="http://www.w3.org/2000/svg" xmlns:xlink="http://www.w3.org/1999/xlink" x="0px" y="0px"
	 viewBox="46.2 56.8 46.6 27.3" enable-background="new 46.2 56.8 46.6 27.3" xml:space="preserve" fill="#63D1BB">
<g>
	<path fill="none" d="M49.2,81.8h40.2V59.6H49.2V81.8z M53.1,63.5h32.4v14.4H53.1V63.5z"/>
	<circle fill="none" cx="69.5" cy="70.7" r="5.3"/>
	<path d="M88.9,56.8H50.1c-2.2,0-3.9,1.7-3.9,3.9v19.5c0,2.2,1.7,3.9,3.9,3.9h38.8c2.2,0,3.9-1.7,3.9-3.9V60.7
		C92.8,58.6,91,56.8,88.9,56.8z M89.4,81.8H49.2V59.6h40.2V81.8z"/>
	<path d="M85.5,63.5H53.1v14.4h32.4V63.5z M69.5,76c-2.9,0-5.3-2.4-5.3-5.3c0-2.9,2.4-5.3,5.3-5.3
		c2.9,0,5.3,2.4,5.3,5.3C74.8,73.6,72.4,76,69.5,76z"/>
</g>
</svg>
