<?xml version="1.0" encoding="utf-8"?>
<!-- Generator: Adobe Illustrator 21.0.0, SVG Export Plug-In . SVG Version: 6.00 Build 0)  -->
<svg version="1.1" id="Layer_1" xmlns="http://www.w3.org/2000/svg" xmlns:xlink="http://www.w3.org/1999/xlink" x="0px" y="0px"
	 viewBox="239.7 239.8 32.7 32.5" enable-background="new 239.7 239.8 32.7 32.5" xml:space="preserve">
<g>
	<path fill="none" d="M251.2,242.7c-0.7-0.5-1.4-0.7-2-0.7h0c-0.5,0-1.1,0.3-1.6,0.7c-0.4,0.4-0.7,1-0.7,1.5c0,0.3,0.1,0.6,0.3,1
		c0.2,0.3,0.6,0.7,1.2,1.1c1.2,0.7,3.1,1.4,6.2,1.7c-0.2-0.7-0.4-1.4-0.8-2.1C253.2,244.6,252.2,243.4,251.2,242.7z"/>
	<path fill="none" d="M264.9,243.8c0-0.4-0.2-0.8-0.6-1.2c-0.4-0.3-0.9-0.5-1.5-0.5h0c-0.7,0-1.4,0.2-2,0.7
		c-0.7,0.5-1.3,1.1-1.9,1.9c-0.7,1-1.3,2.3-1.6,3.5c3-0.6,5-1.4,6.1-2.3C264.7,245,264.9,244.3,264.9,243.8z"/>
	<rect x="242.6" y="258.3" fill="#63D1BB" width="12.5" height="13.9"/>
	<rect x="256.9" y="258.3" fill="#63D1BB" width="12.5" height="13.9"/>
	<path fill="#63D1BB" d="M270.7,248.6h-7.3c0.5-0.3,1-0.5,1.4-0.8c1.6-1.1,2.4-2.6,2.4-4c0-1.2-0.6-2.2-1.4-2.9
		c-0.8-0.7-1.9-1.1-3-1.1c-1.2,0-2.4,0.4-3.3,1.1c-1.5,1-2.6,2.5-3.4,4.1c0,0.1-0.1,0.2-0.1,0.2c-0.3-0.6-0.6-1.2-1-1.8
		c-0.7-1-1.5-1.9-2.5-2.5c-1-0.6-2.1-1.1-3.3-1.1c-1.2,0-2.3,0.5-3.2,1.3c-0.8,0.8-1.4,1.9-1.4,3.1c0,0.7,0.2,1.5,0.6,2.2
		c0.6,0.9,1.4,1.6,2.6,2.2h-6.6c-0.9,0-1.6,0.7-1.6,1.6v5.9h15.4v-7.5h1.9v7.5h15.4v-5.9C272.3,249.3,271.6,248.6,270.7,248.6z
		 M248.4,246.3c-0.6-0.4-1-0.8-1.2-1.1c-0.2-0.4-0.3-0.7-0.3-1c0-0.5,0.2-1,0.7-1.5c0.4-0.4,1-0.7,1.6-0.7h0c0.7,0,1.4,0.2,2,0.7
		c1,0.7,2,1.8,2.6,3.2c0.3,0.7,0.6,1.4,0.8,2.1C251.5,247.7,249.5,247,248.4,246.3z M258.9,244.7c0.6-0.8,1.2-1.5,1.9-1.9
		c0.7-0.5,1.4-0.7,2-0.7h0c0.6,0,1.1,0.2,1.5,0.5c0.4,0.3,0.6,0.7,0.6,1.2c0,0.5-0.3,1.3-1.5,2.1c-1.1,0.8-3.1,1.7-6.1,2.3
		C257.6,247,258.2,245.7,258.9,244.7z"/>
</g>
</svg>
