<?xml version="1.0" encoding="utf-8"?>
<!-- Generator: Adobe Illustrator 21.0.0, SVG Export Plug-In . SVG Version: 6.00 Build 0)  -->
<svg version="1.1" id="Layer_1" xmlns="http://www.w3.org/2000/svg" xmlns:xlink="http://www.w3.org/1999/xlink" x="0px" y="0px"
	 viewBox="226 226.2 60 59.6" enable-background="new 226 226.2 60 59.6" xml:space="preserve" fill="#149080">
<g>
	<path fill="none" d="M256,247.8c-4.1,0-7.4-1.4-7.7-3.1h0v4.1c0,1.8,3.5,3.3,7.7,3.3c4.3,0,7.7-1.5,7.7-3.3v-4.1h0
		C263.4,246.4,260.1,247.8,256,247.8z"/>
	<ellipse cx="255.9" cy="229.5" rx="7.7" ry="3.3"/>
	<polygon points="258.6,262.7 258.6,285.8 286,269.9 286,246.7 	"/>
	<path d="M277.3,238.6v2.5c0,1.8-3.5,3.3-7.7,3.3c-4.3,0-7.7-1.5-7.7-3.3V237h0c0.3,1.7,3.6,3.1,7.7,3.1
		c4.3,0,7.7-1.5,7.7-3.3c0-1.8-3.5-3.3-7.7-3.3c-0.3,0-0.7,0-1,0l-5-2.9v3.1c0,1.8-3.5,3.3-7.7,3.3c-2.7,0-5-0.6-6.4-1.5
		c-0.2-0.2-0.4-0.4-0.7-0.6c-0.4-0.4-0.6-0.8-0.6-1.2v-3l-4.8,2.8c-0.3,0-0.7,0-1.1,0c-4.3,0-7.7,1.5-7.7,3.3c0,1.8,3.5,3.3,7.7,3.3
		c4.1,0,7.4-1.4,7.7-3.1h0v4.1c0,1.8-3.5,3.3-7.7,3.3c-4.3,0-7.7-1.5-7.7-3.3v-2.4l-6,3.5l27.5,16l27.4-15.9L277.3,238.6z
		 M263.7,248.8c0,1.8-3.5,3.3-7.7,3.3c-4.3,0-7.7-1.5-7.7-3.3v-4.1h0c0.3,1.7,3.6,3.1,7.7,3.1c4.1,0,7.4-1.4,7.7-3.1h0V248.8z"/>
	<polygon points="226,269.9 253.4,285.8 253.4,262.5 226,246.5 	"/>
</g>
</svg>
